<svg width="128" height="46" viewBox="0 0 128 46" fill="none" xmlns="http://www.w3.org/2000/svg">
<path d="M74.6166 26.9134H60.5268C60.7492 27.6638 61.0549 28.2752 61.4439 28.7476C61.833 29.22 62.2637 29.5952 62.7362 29.8731C63.2364 30.151 63.7505 30.3456 64.2785 30.4567C64.8066 30.5679 65.3207 30.6235 65.8209 30.6235C66.2656 30.6235 66.738 30.5818 67.2382 30.4984C67.7107 30.4428 68.197 30.3456 68.6972 30.2066C69.1975 30.0677 69.7116 29.8731 70.2396 29.623L72.5323 32.8745C71.8931 33.1802 71.2123 33.4442 70.4897 33.6665C69.8227 33.8888 69.0863 34.0695 68.2804 34.2084C67.5022 34.3752 66.6685 34.4585 65.7792 34.4585C64.4453 34.4585 63.2086 34.2362 62.0692 33.7916C60.9298 33.3469 59.9432 32.7216 59.1095 31.9157C58.2758 31.082 57.6227 30.0954 57.1503 28.956C56.6779 27.8166 56.4416 26.5522 56.4416 25.1626C56.4416 23.8843 56.664 22.6893 57.1086 21.5777C57.5533 20.4383 58.1785 19.4517 58.9845 18.618C59.7904 17.7565 60.7492 17.0895 61.8608 16.6171C62.9724 16.1168 64.1952 15.8667 65.5291 15.8667C66.6963 15.8667 67.8218 16.0752 68.9057 16.492C69.9895 16.8811 70.9483 17.4925 71.782 18.3262C72.6435 19.1321 73.3243 20.1465 73.8246 21.3692C74.3526 22.5642 74.6166 23.9538 74.6166 25.5378V26.9134ZM65.5291 19.7018C64.5564 19.7018 63.5838 19.9936 62.6111 20.5772C61.6385 21.1608 60.9576 22.1057 60.5685 23.4118H70.4897C70.1284 22.1057 69.4476 21.1608 68.4471 20.5772C67.4744 19.9936 66.5018 19.7018 65.5291 19.7018Z" fill="#1E1E1E"/>
<path d="M17.7934 32.2075C17.182 32.7633 16.5707 33.1941 15.9593 33.4998C15.3479 33.8055 14.7643 34.0278 14.2085 34.1667C13.6527 34.3057 13.1246 34.3891 12.6244 34.4169C12.152 34.4446 11.7351 34.4585 11.3738 34.4585C10.1233 34.4585 8.94217 34.2223 7.83055 33.7499C6.74673 33.2497 5.78796 32.5827 4.95424 31.749C4.14832 30.8875 3.49524 29.9009 2.99502 28.7893C2.52258 27.6499 2.28636 26.441 2.28636 25.1626C2.28636 23.8843 2.52258 22.6893 2.99502 21.5777C3.49524 20.4383 4.14832 19.4517 4.95424 18.618C5.78796 17.7565 6.74673 17.0895 7.83055 16.6171C8.94217 16.1168 10.1233 15.8667 11.3738 15.8667C11.7351 15.8667 12.152 15.8806 12.6244 15.9084C13.1246 15.9362 13.6527 16.0196 14.2085 16.1585C14.7643 16.2975 15.3479 16.5198 15.9593 16.8255C16.5707 17.1312 17.182 17.5619 17.7934 18.1178V9.07197H21.8786V34H17.7934V32.2075ZM12.0408 30.6235C12.8467 30.6235 13.5971 30.4984 14.2918 30.2483C14.9866 29.9704 15.5841 29.5952 16.0843 29.1228C16.6123 28.6225 17.0292 28.0389 17.3349 27.372C17.6406 26.705 17.7934 25.9686 17.7934 25.1626C17.7934 24.3567 17.6406 23.6203 17.3349 22.9533C17.0292 22.2863 16.6123 21.7166 16.0843 21.2442C15.5841 20.744 14.9866 20.3688 14.2918 20.1187C13.5971 19.8408 12.8467 19.7018 12.0408 19.7018C11.2627 19.7018 10.5262 19.8408 9.83147 20.1187C9.13671 20.3688 8.52532 20.744 7.9973 21.2442C7.49707 21.7166 7.09411 22.2863 6.78841 22.9533C6.51051 23.6203 6.37156 24.3567 6.37156 25.1626C6.37156 25.9686 6.51051 26.705 6.78841 27.372C7.09411 28.0389 7.49707 28.6225 7.9973 29.1228C8.52532 29.5952 9.13671 29.9704 9.83147 30.2483C10.5262 30.4984 11.2627 30.6235 12.0408 30.6235Z" fill="#1E1E1E"/>
<path d="M39.0466 26.9134H24.9569C25.1792 27.6638 25.4849 28.2752 25.874 28.7476C26.263 29.22 26.6938 29.5952 27.1662 29.8731C27.6665 30.151 28.1806 30.3456 28.7086 30.4567C29.2366 30.5679 29.7507 30.6235 30.251 30.6235C30.6956 30.6235 31.1681 30.5818 31.6683 30.4984C32.1407 30.4428 32.6271 30.3456 33.1273 30.2066C33.6275 30.0677 34.1416 29.8731 34.6696 29.623L36.9624 32.8745C36.3232 33.1802 35.6423 33.4442 34.9198 33.6665C34.2528 33.8888 33.5163 34.0695 32.7104 34.2084C31.9323 34.3752 31.0986 34.4585 30.2093 34.4585C28.8753 34.4585 27.6387 34.2362 26.4993 33.7916C25.3598 33.3469 24.3733 32.7216 23.5396 31.9157C22.7059 31.082 22.0528 30.0954 21.5803 28.956C21.1079 27.8166 20.8717 26.5522 20.8717 25.1626C20.8717 23.8843 21.094 22.6893 21.5387 21.5777C21.9833 20.4383 22.6086 19.4517 23.4145 18.618C24.2204 17.7565 25.1792 17.0895 26.2908 16.6171C27.4024 16.1168 28.6252 15.8667 29.9592 15.8667C31.1264 15.8667 32.2519 16.0752 33.3357 16.492C34.4195 16.8811 35.3783 17.4925 36.212 18.3262C37.0735 19.1321 37.7544 20.1465 38.2546 21.3692C38.7826 22.5642 39.0466 23.9538 39.0466 25.5378V26.9134ZM29.9592 19.7018C28.9865 19.7018 28.0138 19.9936 27.0412 20.5772C26.0685 21.1608 25.3876 22.1057 24.9986 23.4118H34.9198C34.5585 22.1057 33.8776 21.1608 32.8772 20.5772C31.9045 19.9936 30.9318 19.7018 29.9592 19.7018ZM27.9166 13.9492L30.7512 8.69679H35.42L31.9601 13.9492H27.9166Z" fill="#1E1E1E"/>
<path d="M42.6896 34H38.6044V9.07197H42.6896V18.1178C43.301 17.5619 43.9124 17.1312 44.5238 16.8255C45.1352 16.5198 45.7188 16.2975 46.2746 16.1585C46.8304 16.0196 47.3445 15.9362 47.817 15.9084C48.3172 15.8806 48.748 15.8667 49.1092 15.8667C50.3598 15.8667 51.527 16.1168 52.6108 16.6171C53.7225 17.0895 54.6812 17.7565 55.4871 18.618C56.3209 19.4517 56.9739 20.4383 57.4464 21.5777C57.9466 22.6893 58.1967 23.8843 58.1967 25.1626C58.1967 26.441 57.9466 27.6499 57.4464 28.7893C56.9739 29.9009 56.3209 30.8875 55.4871 31.749C54.6812 32.5827 53.7225 33.2497 52.6108 33.7499C51.527 34.2223 50.3598 34.4585 49.1092 34.4585C48.748 34.4585 48.3172 34.4446 47.817 34.4169C47.3445 34.3891 46.8304 34.3057 46.2746 34.1667C45.7188 34.0278 45.1352 33.8055 44.5238 33.4998C43.9124 33.1941 43.301 32.7633 42.6896 32.2075V34ZM48.4423 30.6235C49.2204 30.6235 49.9568 30.4984 50.6516 30.2483C51.3464 29.9704 51.9439 29.5952 52.4441 29.1228C52.9721 28.6225 53.3751 28.0389 53.653 27.372C53.9587 26.705 54.1115 25.9686 54.1115 25.1626C54.1115 24.3567 53.9587 23.6203 53.653 22.9533C53.3751 22.2863 52.9721 21.7166 52.4441 21.2442C51.9439 20.744 51.3464 20.3688 50.6516 20.1187C49.9568 19.8408 49.2204 19.7018 48.4423 19.7018C47.6641 19.7018 46.9138 19.8408 46.1912 20.1187C45.4965 20.3688 44.8851 20.744 44.3571 21.2442C43.8568 21.7166 43.4539 22.2863 43.1482 22.9533C42.8425 23.6203 42.6896 24.3567 42.6896 25.1626C42.6896 25.9686 42.8425 26.705 43.1482 27.372C43.4539 28.0389 43.8568 28.6225 44.3571 29.1228C44.8851 29.5952 45.4965 29.9704 46.1912 30.2483C46.9138 30.4984 47.6641 30.6235 48.4423 30.6235Z" fill="#1E1E1E"/>
<path d="M74.6375 16.3253H78.7227V19.1599C79.2507 18.4096 79.8343 17.826 80.4735 17.4091C81.1126 16.9922 81.724 16.6865 82.3076 16.492C82.8912 16.2975 83.4192 16.1863 83.8917 16.1585C84.3641 16.1307 84.6837 16.1168 84.8505 16.1168C85.045 16.1168 85.2534 16.1168 85.4757 16.1168C85.7258 16.1168 85.9621 16.1307 86.1844 16.1585V20.077C85.8787 20.0214 85.6286 19.9797 85.434 19.9519C85.3229 19.9519 85.2395 19.9519 85.1839 19.9519C84.0723 19.9519 83.0997 20.202 82.2659 20.7023C81.46 21.1747 80.793 21.7722 80.265 22.4948C79.737 23.2173 79.3479 23.9954 79.0978 24.8292C78.8477 25.6629 78.7227 26.4271 78.7227 27.1219V34H74.6375V16.3253Z" fill="#1E1E1E"/>
<path d="M86.618 16.3253H90.7032V19.1599C91.2312 18.4096 91.8148 17.826 92.454 17.4091C93.0932 16.9922 93.7046 16.6865 94.2882 16.492C94.8718 16.2975 95.3998 16.1863 95.8722 16.1585C96.3446 16.1307 96.6642 16.1168 96.831 16.1168C97.0255 16.1168 97.2339 16.1168 97.4563 16.1168C97.7064 16.1168 97.9426 16.1307 98.1649 16.1585V20.077C97.8592 20.0214 97.6091 19.9797 97.4146 19.9519C97.3034 19.9519 97.22 19.9519 97.1645 19.9519C96.0528 19.9519 95.0802 20.202 94.2465 20.7023C93.4405 21.1747 92.7736 21.7722 92.2456 22.4948C91.7175 23.2173 91.3285 23.9954 91.0784 24.8292C90.8282 25.6629 90.7032 26.4271 90.7032 27.1219V34H86.618V16.3253Z" fill="#1E1E1E"/>
<path d="M121.292 12.93H121.891V10.5739H122.828V9.90347H120.335V10.5739H121.292V12.93ZM126.648 10.8082V12.93H127.247V9.90347H126.596L125.438 11.3874L124.279 9.90347H123.622V12.93H124.227V10.8082L125.386 12.2791H125.49L126.648 10.8082Z" fill="#1E1E1E"/>
<path d="M107.823 36.0426C107.351 37.182 106.809 38.0852 106.198 38.7522C105.614 39.4469 104.989 39.9749 104.322 40.3362C103.683 40.7253 103.03 40.9754 102.363 41.0866C101.696 41.2255 101.043 41.295 100.403 41.295C99.8198 41.295 99.3613 41.295 99.0278 41.295C98.6943 41.295 98.4164 41.2811 98.1941 41.2533V37.5433C98.3608 37.5989 98.5415 37.6267 98.736 37.6267C98.9583 37.6267 99.1946 37.6267 99.4447 37.6267C100.501 37.6267 101.432 37.4738 102.238 37.1681C103.071 36.8624 103.669 36.0982 104.03 34.8754L96.7351 16.3253H101.195L106.156 29.4563L111.117 16.3253H115.577L107.823 36.0426Z" fill="#1E1E1E"/>
</svg>
