<svg width="170" height="128" viewBox="0 0 170 128" fill="none" xmlns="http://www.w3.org/2000/svg">
<g clip-path="url(#clip0_1_203)">
<path opacity="0.18" d="M58.0297 2.0464C47.1566 4.42104 36.7144 9.64731 29.2622 17.9457C25.3027 22.3411 22.1947 27.6443 21.0561 33.4553C20.1277 38.3174 20.6099 43.3232 20.3226 48.2622C19.9265 54.9481 18.1303 61.4761 15.0502 67.4235C11.3267 74.6038 5.68499 81.0764 4.53613 89.0671C4.02325 92.7599 4.4951 96.5347 5.367 100.161C7.55188 109.275 12.4909 118.112 20.4765 123.02C27.0055 127.031 34.9398 128.082 42.6074 128.021C61.1737 127.872 79.222 121.763 97.7576 120.681C113.375 119.768 130.018 122.22 143.891 115.009C148.912 112.388 153.241 108.623 157.272 104.643C161.304 100.663 165.479 95.7038 165.479 89.939C165.479 86.2617 163.801 82.8253 162.16 79.5378C156.554 68.3262 150.877 56.9709 142.507 47.616C139.337 44.072 135.772 40.7998 133.398 36.6762C128.874 28.824 128.925 18.3868 122.427 12.0579C115.929 5.72889 101.861 3.37989 93.2237 1.53351C82.2737 -0.810357 68.9285 -0.328248 58.0297 2.0464Z" fill="#FFAA20"/>
<path opacity="0.18" d="M77.2526 84.0614C65.6256 84.8153 53.9165 83.4921 42.3254 84.6409C30.7342 85.7898 18.702 89.9185 11.6089 99.1606C11.1003 99.7549 10.7321 100.456 10.5318 101.212C10.1984 102.92 11.4858 104.505 12.8141 105.628C20.215 111.88 30.6983 112.496 40.3764 112.808L106.938 115.039C120.945 115.506 135.855 115.757 147.851 108.505C151.441 106.341 154.821 103.248 155.667 99.1504C159.488 80.6097 128.756 85.6462 119.694 81.6611C113.985 79.1531 111.072 77.0452 104.548 78.3838C95.2753 80.2609 86.8589 83.4408 77.2526 84.0614Z" fill="#FFAA20"/>
<path d="M67.4462 53.9655C68.1284 54.8015 67.8924 56.1555 67.6052 57.0838C67.5429 57.302 67.4587 57.5133 67.3539 57.7146C67.2514 57.9008 67.1256 58.0732 66.9795 58.2275C66.5914 58.6182 66.1198 58.9158 65.6001 59.0979C65.0804 59.2801 64.5262 59.3419 63.9791 59.2789C62.8788 59.139 61.8717 58.5896 61.1583 57.7403C60.9658 57.5374 60.825 57.2911 60.748 57.0222C60.6666 56.5729 60.7019 56.1102 60.8506 55.6785C60.9111 55.4802 61.0128 55.2969 61.1489 55.1405C61.2849 54.9841 61.4524 54.8581 61.6404 54.7707C61.873 54.7087 62.1024 54.6351 62.3277 54.5501C63.2714 54.0373 62.9739 52.6474 64.2305 52.4986C65.2562 52.3396 66.8308 53.2064 67.4462 53.9655Z" fill="#FFAA20"/>
<path d="M67.4462 53.9655C68.1284 54.8015 67.8924 56.1555 67.6052 57.0838C67.5429 57.302 67.4587 57.5133 67.3539 57.7146C67.2514 57.9008 67.1256 58.0732 66.9795 58.2275C66.5914 58.6182 66.1198 58.9158 65.6001 59.0979C65.0804 59.2801 64.5262 59.3419 63.9791 59.2789C62.8788 59.139 61.8717 58.5896 61.1583 57.7403C60.9658 57.5374 60.825 57.2911 60.748 57.0222C60.6666 56.5729 60.7019 56.1102 60.8506 55.6785C60.9111 55.4802 61.0128 55.2969 61.1489 55.1405C61.2849 54.9841 61.4524 54.8581 61.6404 54.7707C61.873 54.7087 62.1024 54.6351 62.3277 54.5501C63.2714 54.0373 62.9739 52.6474 64.2305 52.4986C65.2562 52.3396 66.8308 53.2064 67.4462 53.9655Z" fill="url(#paint0_linear_1_203)"/>
<path d="M94.2084 107.833C109.201 107.833 121.355 105.797 121.355 103.284C121.355 100.772 109.201 98.735 94.2084 98.735C79.2156 98.735 67.0615 100.772 67.0615 103.284C67.0615 105.797 79.2156 107.833 94.2084 107.833Z" fill="url(#paint1_linear_1_203)"/>
<path d="M115.278 76.4861V76.522C115.278 93.8164 100.471 107.808 82.2071 107.808C81.2531 107.808 80.3043 107.772 79.3708 107.69C62.4457 106.331 49.1364 92.8881 49.1364 76.4964V76.4605C49.1364 74.091 52.6753 71.9369 58.4145 70.352C64.4306 68.6954 72.8675 67.6646 82.2071 67.6646C100.466 67.6902 115.278 71.6291 115.278 76.4861Z" fill="#FFAA20"/>
<path d="M115.278 76.4861V76.522C115.278 93.8164 100.471 107.808 82.2071 107.808C81.2531 107.808 80.3043 107.772 79.3708 107.69C62.4457 106.331 49.1364 92.8881 49.1364 76.4964V76.4605C49.1364 74.091 52.6753 71.9369 58.4145 70.352C64.4306 68.6954 72.8675 67.6646 82.2071 67.6646C100.466 67.6902 115.278 71.6291 115.278 76.4861Z" fill="url(#paint2_linear_1_203)"/>
<path d="M103.071 85.9078C103.35 85.8567 103.635 85.8463 103.917 85.877C104.523 85.9847 104.943 86.5181 105.343 86.9797C106.796 88.6564 108.718 89.8588 110.862 90.4314C110.99 90.4622 111.149 90.4827 111.221 90.3801C111.241 90.3429 111.254 90.3019 111.258 90.2596C111.263 90.2173 111.259 90.1746 111.246 90.1339L110.544 85.677C110.44 84.8437 110.269 84.0204 110.031 83.2151C109.938 82.8784 109.772 82.5665 109.544 82.3022C109.138 81.9504 108.643 81.7194 108.113 81.6355C107.511 81.4439 106.882 81.3571 106.251 81.379C105.717 81.4536 105.198 81.611 104.712 81.8457C103.563 82.3586 100.922 83.0664 100.435 84.3332C99.763 86.0052 102.03 86.0206 103.071 85.9078Z" fill="url(#paint3_linear_1_203)"/>
<path d="M99.3782 78.9223V78.9582C99.3782 91.8469 91.1721 102.915 79.3758 107.716C62.4507 106.356 49.1414 92.9137 49.1414 76.522V76.4861C49.1414 74.1166 52.6803 71.9625 58.4195 70.3777C60.9377 70.2136 63.5483 70.1264 66.2819 70.1264C84.5354 70.1264 99.3372 74.0653 99.3782 78.9223Z" fill="white"/>
<path d="M59.3735 88.4722L60.7121 89.0107C61.019 89.1516 61.3461 89.2434 61.6815 89.2825C62.0835 89.2712 62.476 89.158 62.8223 88.9534C63.1686 88.7489 63.4572 88.4598 63.6612 88.1132C63.9037 87.666 64.2057 87.2536 64.5587 86.8874C65.2101 86.3334 66.1538 86.3335 66.9334 85.9847C67.093 85.9305 67.2253 85.8165 67.3027 85.6667C67.3279 85.5424 67.3177 85.4135 67.2733 85.2947C67.2289 85.176 67.152 85.072 67.0513 84.9948C66.752 84.6974 66.3927 84.4671 65.9974 84.3194C65.6021 84.1717 65.1798 84.11 64.7588 84.1383C64.2915 84.2022 63.829 84.2964 63.374 84.4204C62.7842 84.5384 62.1738 84.5743 61.5789 84.6974C60.4762 84.9384 58.676 85.5898 57.8708 86.4155C56.9168 87.4156 58.5375 88.1439 59.3735 88.4722Z" fill="url(#paint4_linear_1_203)"/>
<path d="M74.6984 87.2925C74.1855 88.5953 74.9394 90.1801 74.3137 91.4418C73.9932 91.9774 73.4805 92.3705 72.8801 92.5411C72.2796 92.7117 71.6368 92.6469 71.0825 92.3598C70.5421 92.0447 70.1006 91.5847 69.8079 91.0319C69.5151 90.479 69.3829 89.8553 69.4259 89.2312C69.5375 87.9754 70.0813 86.7972 70.9646 85.8975C71.1887 85.639 71.4476 85.4129 71.7339 85.2256C72.5853 84.7128 73.6623 84.7589 74.6573 84.8564C75.2933 84.9179 76.9243 84.723 76.396 85.5744C75.9601 86.2617 75.042 86.4155 74.6984 87.2925Z" fill="url(#paint5_linear_1_203)"/>
<path d="M115.278 76.4861V76.522C115.226 81.379 100.44 85.3077 82.2071 85.3077C63.9741 85.3077 49.1877 81.379 49.1364 76.522V76.4861C49.1364 71.6291 63.9587 67.6902 82.2071 67.6902C100.455 67.6902 115.278 71.6291 115.278 76.4861Z" fill="#FFAA20"/>
<path d="M115.278 76.4861V76.522C115.226 81.379 100.44 85.3077 82.2071 85.3077C63.9741 85.3077 49.1877 81.379 49.1364 76.522V76.4861C49.1364 71.6291 63.9587 67.6902 82.2071 67.6902C100.455 67.6902 115.278 71.6291 115.278 76.4861Z" fill="url(#paint6_linear_1_203)"/>
<path d="M67.8002 62.705C66.9078 61.869 65.8307 60.9766 64.6203 61.1663C63.4099 61.3561 62.6714 62.4434 62.0816 63.4743C60.9635 62.505 59.7839 61.4997 58.3427 61.1561C56.9015 60.8125 55.1269 61.3766 54.6089 62.7665C55.0403 63.1786 55.3767 63.6798 55.5946 64.2352C55.8125 64.7906 55.9067 65.3868 55.8706 65.9823C51.2818 65.0189 46.5777 64.7253 41.9048 65.1104C45.6334 69.2135 49.5672 73.4704 54.7627 75.4245C52.1114 74.9866 49.3914 75.5339 47.1157 76.9631C47.8677 78.3481 49.0793 79.4273 50.5417 80.0148C51.3285 80.3016 52.1408 80.5129 52.9676 80.6456C55.1064 81.0662 57.2912 81.4816 59.4454 81.1893C60.0418 81.03 60.6696 81.03 61.2661 81.1893C61.7051 81.4227 62.0843 81.7544 62.3739 82.1586C64.0664 84.1281 66.6001 85.8155 69.1132 85.1641C69.9953 84.9384 70.7954 84.4358 71.6776 84.2666C72.5118 84.1658 73.3567 84.1987 74.1805 84.364C78.624 84.9896 83.1292 85.0465 87.5872 84.5333C88.6936 84.372 89.8084 84.2744 90.9261 84.2409C93.7777 84.2409 96.6601 85.2923 99.4297 84.5999C100.164 84.3547 100.915 84.1594 101.676 84.0152C103.866 83.7742 106.102 85.3949 108.169 84.6256C108.845 84.331 109.45 83.8956 109.944 83.3485C112.135 81.1777 113.786 78.5234 114.765 75.5988C115.278 73.9884 115.791 72.0856 117.365 71.424L110.769 71.3163C110.436 71.3286 110.103 71.2746 109.79 71.1573C109.459 70.9771 109.184 70.7091 108.995 70.3828C108.416 69.5033 108.053 68.4998 107.935 67.4537C107.816 66.4076 107.946 65.3483 108.313 64.3616C108.508 63.8487 108.744 63.182 108.344 62.8229C108.108 62.6429 107.813 62.5586 107.518 62.587C106.33 62.6137 105.182 63.0199 104.241 63.7462C103.301 64.4725 102.618 65.4808 102.292 66.6234L100.302 61.0484C100.272 60.9123 100.216 60.7834 100.137 60.669C100.058 60.5545 99.957 60.4569 99.84 60.3816C99.4707 60.2124 99.0655 60.5047 98.7834 60.7919C97.2897 62.3044 96.2426 64.1999 95.7574 66.2695C95.6138 66.8696 95.4907 67.5363 94.9932 67.9056C94.2906 68.4185 93.311 68.0492 92.4647 67.8236C91.6185 67.5979 90.4132 67.8236 90.326 68.6749C89.5316 66.8562 88.53 65.1352 87.341 63.5461L85.0843 67.1876C85.0286 67.306 84.9501 67.4122 84.8533 67.5002C84.7565 67.5882 84.6433 67.6563 84.5202 67.7005C84.3867 67.7127 84.2522 67.6971 84.1251 67.6548C83.998 67.6124 83.881 67.5441 83.7816 67.4543C83.0168 66.9133 82.3269 66.2735 81.7301 65.5515L79.3195 68.8801C78.5532 68.5092 77.8708 67.9856 77.3142 67.3414C76.6525 66.7157 75.7755 66.0798 74.8318 66.2593C74.1958 66.3824 73.6932 67.285 73.1137 67.3107C71.6519 67.3209 68.8619 63.6949 67.8002 62.705Z" fill="#FFAA20"/>
<path d="M67.8002 62.705C66.9078 61.869 65.8307 60.9766 64.6203 61.1663C63.4099 61.3561 62.6714 62.4434 62.0816 63.4743C60.9635 62.505 59.7839 61.4997 58.3427 61.1561C56.9015 60.8125 55.1269 61.3766 54.6089 62.7665C55.0403 63.1786 55.3767 63.6798 55.5946 64.2352C55.8125 64.7906 55.9067 65.3868 55.8706 65.9823C51.2818 65.0189 46.5777 64.7253 41.9048 65.1104C45.6334 69.2135 49.5672 73.4704 54.7627 75.4245C52.1114 74.9866 49.3914 75.5339 47.1157 76.9631C47.8677 78.3481 49.0793 79.4273 50.5417 80.0148C51.3285 80.3016 52.1408 80.5129 52.9676 80.6456C55.1064 81.0662 57.2912 81.4816 59.4454 81.1893C60.0418 81.03 60.6696 81.03 61.2661 81.1893C61.7051 81.4227 62.0843 81.7544 62.3739 82.1586C64.0664 84.1281 66.6001 85.8155 69.1132 85.1641C69.9953 84.9384 70.7954 84.4358 71.6776 84.2666C72.5118 84.1658 73.3567 84.1987 74.1805 84.364C78.624 84.9896 83.1292 85.0465 87.5872 84.5333C88.6936 84.372 89.8084 84.2744 90.9261 84.2409C93.7777 84.2409 96.6601 85.2923 99.4297 84.5999C100.164 84.3547 100.915 84.1594 101.676 84.0152C103.866 83.7742 106.102 85.3949 108.169 84.6256C108.845 84.331 109.45 83.8956 109.944 83.3485C112.135 81.1777 113.786 78.5234 114.765 75.5988C115.278 73.9884 115.791 72.0856 117.365 71.424L110.769 71.3163C110.436 71.3286 110.103 71.2746 109.79 71.1573C109.459 70.9771 109.184 70.7091 108.995 70.3828C108.416 69.5033 108.053 68.4998 107.935 67.4537C107.816 66.4076 107.946 65.3483 108.313 64.3616C108.508 63.8487 108.744 63.182 108.344 62.8229C108.108 62.6429 107.813 62.5586 107.518 62.587C106.33 62.6137 105.182 63.0199 104.241 63.7462C103.301 64.4725 102.618 65.4808 102.292 66.6234L100.302 61.0484C100.272 60.9123 100.216 60.7834 100.137 60.669C100.058 60.5545 99.957 60.4569 99.84 60.3816C99.4707 60.2124 99.0655 60.5047 98.7834 60.7919C97.2897 62.3044 96.2426 64.1999 95.7574 66.2695C95.6138 66.8696 95.4907 67.5363 94.9932 67.9056C94.2906 68.4185 93.311 68.0492 92.4647 67.8236C91.6185 67.5979 90.4132 67.8236 90.326 68.6749C89.5316 66.8562 88.53 65.1352 87.341 63.5461L85.0843 67.1876C85.0286 67.306 84.9501 67.4122 84.8533 67.5002C84.7565 67.5882 84.6433 67.6563 84.5202 67.7005C84.3867 67.7127 84.2522 67.6971 84.1251 67.6548C83.998 67.6124 83.881 67.5441 83.7816 67.4543C83.0168 66.9133 82.3269 66.2735 81.7301 65.5515L79.3195 68.8801C78.5532 68.5092 77.8708 67.9856 77.3142 67.3414C76.6525 66.7157 75.7755 66.0798 74.8318 66.2593C74.1958 66.3824 73.6932 67.285 73.1137 67.3107C71.6519 67.3209 68.8619 63.6949 67.8002 62.705Z" fill="url(#paint7_linear_1_203)"/>
<path d="M64.3894 70.8239C66.2532 70.8239 67.7642 69.313 67.7642 67.4491C67.7642 65.5853 66.2532 64.0744 64.3894 64.0744C62.5256 64.0744 61.0146 65.5853 61.0146 67.4491C61.0146 69.313 62.5256 70.8239 64.3894 70.8239Z" fill="#FFAA20"/>
<path d="M64.3894 70.8239C66.2532 70.8239 67.7642 69.313 67.7642 67.4491C67.7642 65.5853 66.2532 64.0744 64.3894 64.0744C62.5256 64.0744 61.0146 65.5853 61.0146 67.4491C61.0146 69.313 62.5256 70.8239 64.3894 70.8239Z" fill="url(#paint8_linear_1_203)"/>
<path d="M110.81 75.9322C110.73 76.0304 110.633 76.1137 110.523 76.1784C110.361 76.2445 110.185 76.2692 110.01 76.2502H108.41C108.281 76.2372 108.151 76.2621 108.036 76.322C107.941 76.3963 107.87 76.4959 107.831 76.6092C107.556 77.2562 107.442 77.96 107.497 78.6608C108.01 78.6608 108.384 78.1889 108.795 77.8812C109.754 77.1631 111.139 77.1939 112.046 76.4092C112.411 76.0912 112.682 75.6553 113.124 75.4604C113.225 75.4086 113.339 75.389 113.452 75.4039C113.744 75.4501 113.872 75.7989 113.908 76.0963C114.014 76.9347 113.833 77.7841 113.395 78.5069L110.221 81.7534C109.392 82.8545 108.212 83.6397 106.877 83.9793C105.568 84.3315 104.215 84.4854 102.861 84.4358C101.686 84.4358 100.322 84.2819 99.686 83.2972C99.3772 82.7157 99.2285 82.0626 99.2552 81.4047L99.0295 76.4605C99.0001 76.1792 99.0174 75.895 99.0808 75.6194C99.315 75.0555 99.7348 74.5886 100.271 74.2961L103.681 71.9215C104.164 71.5512 104.698 71.2523 105.266 71.0342C105.805 70.8891 106.36 70.815 106.918 70.8137C108.082 70.7624 109.246 70.7162 110.405 70.7777C111.431 70.8393 113.359 70.7778 113.324 72.2651C113.303 73.4755 111.616 75.0295 110.81 75.9322Z" fill="url(#paint9_linear_1_203)"/>
<path d="M113.698 80.8969C114.07 81.621 114.551 82.2836 115.124 82.8612C115.17 82.9074 115.216 82.9536 115.211 83.0151C115.206 83.0767 115.114 83.1485 115.032 83.1792C114.841 83.2407 114.648 83.2921 114.452 83.3331C114.585 83.3625 114.703 83.4399 114.784 83.5504C114.864 83.661 114.901 83.7972 114.888 83.9332C114.866 84.0696 114.794 84.1928 114.686 84.2784C114.578 84.3639 114.441 84.4055 114.303 84.3948C114.129 84.3492 113.958 84.2927 113.79 84.2255C113.611 84.1896 113.37 84.2871 113.37 84.4717C112.905 84.2817 112.394 84.2353 111.903 84.3383C112.206 84.6351 112.456 84.9822 112.641 85.3641C112.696 85.4641 112.722 85.577 112.718 85.6908C112.713 85.8045 112.678 85.915 112.616 86.0103C112.467 86.1847 112.103 86.0975 112.103 85.8667C112.071 85.9735 112.015 86.0715 111.94 86.1533C111.864 86.2351 111.771 86.2985 111.667 86.3386C111.96 86.9298 112.201 87.546 112.385 88.1798C112.416 88.2773 112.436 88.4055 112.359 88.4722C112.327 88.4936 112.291 88.5074 112.253 88.5128C112.214 88.5181 112.176 88.5147 112.139 88.5029C111.693 88.4004 111.349 87.9901 110.893 87.9336C110.518 87.8772 110.046 88.0465 109.805 87.7541C109.949 87.9696 109.692 88.267 109.431 88.267C109.17 88.2371 108.93 88.1131 108.754 87.9183L107.882 87.1643C107.697 86.9677 107.451 86.8379 107.184 86.795C107.023 86.807 106.863 86.8344 106.707 86.8771C106.525 86.9032 106.34 86.8821 106.168 86.8156C105.996 86.7491 105.845 86.6396 105.728 86.4976C105.715 86.5325 105.694 86.5643 105.668 86.5908C105.642 86.6173 105.61 86.638 105.575 86.6515C105.54 86.6651 105.503 86.6711 105.466 86.6694C105.428 86.6676 105.392 86.658 105.359 86.6412C105.224 86.5694 105.115 86.4585 105.046 86.3232L104.153 84.9846C104.098 84.8863 104.023 84.8007 103.933 84.7333C103.793 84.6649 103.637 84.6365 103.481 84.6512C103.006 84.641 102.533 84.5686 102.076 84.4358C101.615 84.3024 101.384 84.2255 101.717 83.8101C102.05 83.3946 102.297 83.169 102.558 82.8253C102.769 82.4761 103.004 82.1419 103.261 81.8252C103.795 81.9246 104.347 81.8565 104.841 81.6303C105.793 81.0682 106.686 80.4119 107.508 79.6711C108.39 78.9223 109.277 78.1735 110.072 77.3426C110.734 76.6534 111.351 75.9219 111.918 75.1526C112.582 75.6936 113.14 76.3526 113.565 77.0965C113.842 77.6407 113.923 78.2636 113.795 78.8608C113.672 79.3737 113.16 79.6711 113.37 80.1994C113.477 80.4353 113.585 80.6712 113.698 80.8969Z" fill="#FFAA20"/>
<path d="M102.266 82.9946C102.791 82.8555 103.333 82.7899 103.876 82.7997C103.986 82.7938 104.097 82.8112 104.199 82.851C104.43 82.9536 104.533 83.2254 104.712 83.3947C105.066 83.728 105.62 83.6408 106.097 83.7229C107.282 83.9383 108.056 85.2974 109.257 85.3692C108.908 84.8871 108.303 84.682 107.815 84.3435C107.513 84.1383 107.246 83.8819 106.938 83.6921C106.425 83.3844 105.825 83.2664 105.348 82.9228C106.483 82.8047 107.625 83.0508 108.61 83.6254C108.946 83.8117 109.298 83.9663 109.662 84.087C109.835 84.1263 110.007 84.176 110.175 84.2358C110.487 84.4042 110.771 84.6205 111.016 84.8769C111.052 84.9099 111.096 84.9328 111.144 84.9436C111.252 84.9436 111.318 84.8051 111.277 84.7076C111.224 84.6125 111.141 84.5371 111.041 84.4922C109.653 83.7195 108.229 83.0049 106.769 82.3484C107.61 82.2796 108.455 82.417 109.231 82.7484C109.699 83.0837 110.197 83.3755 110.718 83.6203C110.649 83.2949 110.468 83.0042 110.205 82.7997C109.938 82.5951 109.647 82.423 109.339 82.2868L107.682 81.5021C107.682 81.3483 107.856 81.2559 108.01 81.2252C108.613 81.1451 109.226 81.2302 109.785 81.4713C110.354 81.6816 110.893 81.9842 111.472 82.1432C111.949 82.292 112.447 82.3638 112.918 82.5228C113.375 82.6851 113.817 82.8841 114.242 83.1177C113.442 82.0919 112.093 81.7586 110.826 81.5431C110.541 81.5161 110.266 81.425 110.021 81.2764C109.867 81.1585 109.749 80.9944 109.605 80.8661C109.538 80.8013 109.457 80.7538 109.367 80.7279C109.278 80.702 109.184 80.6984 109.092 80.7174C109.251 80.4977 109.453 80.3132 109.686 80.1755C109.919 80.0378 110.178 79.9499 110.446 79.9173C110.984 79.8531 111.527 79.8377 112.067 79.8711C112.359 79.8711 112.739 79.8045 112.801 79.5173C111.903 79.6683 110.985 79.6439 110.098 79.4455C110.067 79.3326 110.19 79.2352 110.293 79.1788C110.952 78.8292 111.638 78.5325 112.344 78.2915C112.913 78.0966 113.083 77.3119 113.077 76.7067C112.827 77.0261 112.512 77.2899 112.154 77.4811L112.308 76.2605C111.411 77.3632 109.846 77.6093 108.662 78.3941C107.733 79.0095 106.097 78.9736 105.364 79.784C104.63 80.5943 103.64 81.3226 102.527 81.3739C102.199 81.3739 102.815 82.3022 102.486 82.333C102.321 82.3361 102.159 82.3764 102.011 82.451C101.864 82.5256 101.735 82.6326 101.635 82.7638C101.758 82.892 102.102 82.9023 102.266 82.9946Z" fill="url(#paint10_linear_1_203)"/>
<path d="M54.7884 76.3323C54.8549 76.6521 55.0095 76.9469 55.2346 77.1837L53.9626 77.0503C53.726 77.0409 53.4923 76.9942 53.2702 76.9118C52.8614 76.6834 52.5295 76.3389 52.3163 75.922C52.4355 76.3771 52.5969 76.8201 52.7984 77.2452C52.5308 77.1375 52.235 77.1212 51.9573 77.199C51.3777 77.2954 50.7906 77.3384 50.2032 77.3273C50.1555 77.3321 50.1075 77.3232 50.0647 77.3016C50.0197 77.2679 49.9857 77.2214 49.9673 77.1683C49.8276 76.8464 49.6234 76.5566 49.3672 76.3169C49.2954 76.7118 49.7314 77.0862 49.6236 77.4709C49.1313 77.4797 48.6414 77.3997 48.1773 77.2349C48.1562 77.2683 48.1493 77.3086 48.1579 77.3471C48.1666 77.3855 48.1902 77.419 48.2235 77.4401C48.2922 77.479 48.3702 77.4985 48.4491 77.4965C49.0505 77.5418 49.6417 77.6766 50.2032 77.8966C50.2055 78.0164 50.1835 78.1354 50.1386 78.2464C50.0936 78.3575 50.0266 78.4583 49.9416 78.5428C49.9878 78.4146 50.157 78.3992 50.2853 78.3428C50.4135 78.2863 50.5725 78.0761 50.7161 77.9325C51.0186 77.6867 51.3983 77.5559 51.788 77.5632C52.1738 77.5713 52.5593 77.5352 52.9369 77.4555C53.0663 77.7457 53.1527 78.0532 53.1933 78.3684L53.5626 77.3119C54.255 77.7017 55.1576 77.3837 55.9013 77.6606C55.9731 77.6606 56.0603 77.717 56.1167 77.6606C56.1464 77.6172 56.1673 77.5684 56.1783 77.517C56.2021 77.472 56.2386 77.4349 56.2833 77.4103C56.3279 77.3857 56.3788 77.3746 56.4296 77.3786C56.5312 77.3879 56.6312 77.4103 56.7271 77.4452C57.3836 77.6247 58.0913 77.3991 58.7529 77.5478C58.3858 77.4382 58.0125 77.3509 57.6349 77.2862C57.3271 77.2606 57.122 77.4093 56.8194 77.2862C56.124 77.009 55.4457 76.6905 54.7884 76.3323Z" fill="#FFAA20"/>
<path d="M59.276 64.9104C58.3455 63.8059 57.2886 62.8144 56.127 61.9562C57.5116 62.7246 58.7315 63.758 59.7171 64.9976C59.7171 64.0898 59.6915 63.182 59.6505 62.2742C59.8925 63.1411 60.0387 64.032 60.0864 64.9309L60.825 62.9768L60.4916 64.8591C60.461 64.9918 60.4506 65.1284 60.4608 65.2643C60.5036 65.4755 60.5949 65.6739 60.7275 65.8438L61.4763 64.2334C61.4552 64.7638 61.3352 65.2857 61.1224 65.772C60.9404 66.0587 60.8609 66.3986 60.8968 66.7362C60.9583 66.9568 61.2045 67.2183 61.0968 67.4543C60.6506 67.2183 60.5839 66.8542 60.3685 66.4285C60.0736 65.876 59.7062 65.3655 59.276 64.9104Z" fill="#FFAA20"/>
<path d="M106.174 75.8091C105.082 76.2707 104.728 77.5991 104.358 78.7274C103.995 79.8112 103.497 80.845 102.876 81.8047C102.384 82.581 101.812 83.303 101.168 83.9588C101.117 84.0204 101.061 84.0768 100.999 84.1383C100.652 84.5213 100.227 84.8256 99.7527 85.0308C98.3115 85.5744 96.7472 84.4358 95.2137 84.6051C94.6809 84.7092 94.1551 84.8463 93.6392 85.0154C91.7056 85.4975 89.69 84.764 87.6949 84.764C86.9119 84.7863 86.131 84.8548 85.3561 84.9692C82.2369 85.3275 79.0848 85.2879 75.9755 84.8512C75.4 84.7345 74.8093 84.712 74.2266 84.7846C73.6009 84.9025 73.0418 85.2513 72.4264 85.4103C70.6672 85.8667 68.8926 84.6871 67.713 83.3075C67.51 83.0256 67.245 82.794 66.9385 82.6305C66.5221 82.5173 66.083 82.5173 65.6666 82.6305C64.1447 82.7526 62.6131 82.6244 61.1327 82.2509C60.5545 82.156 59.9863 82.0084 59.4351 81.8099C58.4104 81.398 57.5616 80.6417 57.0348 79.6711C58.627 78.6719 60.5287 78.2872 62.3841 78.5889C58.7529 77.2247 55.9988 74.25 53.3882 71.3778C56.6486 71.1089 59.9308 71.3127 63.1329 71.983C63.1605 71.5672 63.0961 71.1504 62.9446 70.7622C62.793 70.3739 62.5579 70.0238 62.2559 69.7366C62.6201 68.7621 63.8561 68.3723 64.8665 68.6083C65.8549 68.9327 66.7516 69.4884 67.4822 70.229C67.8925 69.5109 68.4361 68.7365 69.2568 68.6185C70.0774 68.5006 70.8569 69.1314 71.4827 69.7007C72.2263 70.3982 74.1753 72.9319 75.2011 72.8857C75.6062 72.8857 75.955 72.2343 76.4012 72.1523C77.0731 72.0241 77.6783 72.4703 78.1347 72.9062C78.5251 73.3571 79.0033 73.7235 79.54 73.9833L81.2274 71.6548C81.6448 72.1595 82.1278 72.6063 82.6635 72.9831C82.732 73.0465 82.8131 73.0947 82.9014 73.1248C82.9898 73.1548 83.0834 73.166 83.1764 73.1575C83.3514 73.0911 83.4932 72.9584 83.5713 72.7882L85.151 70.2238C85.9817 71.3369 86.682 72.5415 87.2384 73.814C87.2846 73.2037 88.136 73.0549 88.7309 73.2139C89.3258 73.3729 90.008 73.6448 90.5003 73.2755C90.7987 72.9652 90.98 72.5609 91.0132 72.1318C91.3509 70.6832 92.0842 69.3568 93.1314 68.3005C93.3315 68.1005 93.6135 67.8954 93.87 68.0133C93.9526 68.064 94.0239 68.1312 94.0794 68.2106C94.135 68.29 94.1737 68.38 94.1931 68.4749L95.5881 72.3779C95.8151 71.5776 96.2928 70.8712 96.951 70.3626C97.6093 69.8539 98.4133 69.5698 99.245 69.552C99.3627 69.5398 99.4816 69.5537 99.5933 69.5927C99.705 69.6317 99.8067 69.6949 99.8912 69.7776C100.173 70.0443 100.009 70.5059 99.8912 70.8701C99.6349 71.5602 99.5445 72.3009 99.6273 73.0324C99.7102 73.7638 99.964 74.4656 100.368 75.0808C100.5 75.3091 100.691 75.4971 100.922 75.6245C101.142 75.7063 101.375 75.743 101.609 75.7322L106.174 75.8091Z" fill="url(#paint11_linear_1_203)"/>
<path d="M76.2986 66.4541C77.8732 69.7622 81.9404 71.4753 83.1354 74.9372C83.2364 75.3024 83.3703 75.6578 83.5354 75.9989C83.756 76.3887 84.0945 76.6964 84.3253 77.0759C84.9869 78.1735 84.6125 79.5788 84.2278 80.7943L83.1713 84.1383C83.0123 84.6512 82.8379 85.3692 82.3148 85.3692L81.448 85.7539C80.771 85.3282 79.4734 85.2718 79.0169 84.7281C78.5605 84.1845 78.6887 82.9228 78.4271 82.2714C77.8629 80.8559 77.0269 79.6506 76.5705 78.1684C75.9864 76.2448 75.6722 74.2494 75.637 72.2394C75.6165 71.2352 75.6679 70.2308 75.7909 69.234C75.8524 68.6698 76.5089 66.8747 76.2986 66.4541Z" fill="#FFAA20"/>
<path d="M76.2986 66.4541C77.8732 69.7622 81.9404 71.4753 83.1354 74.9372C83.2364 75.3024 83.3703 75.6578 83.5354 75.9989C83.756 76.3887 84.0945 76.6964 84.3253 77.0759C84.9869 78.1735 84.6125 79.5788 84.2278 80.7943L83.1713 84.1383C83.0123 84.6512 82.8379 85.3692 82.3148 85.3692L81.448 85.7539C80.771 85.3282 79.4734 85.2718 79.0169 84.7281C78.5605 84.1845 78.6887 82.9228 78.4271 82.2714C77.8629 80.8559 77.0269 79.6506 76.5705 78.1684C75.9864 76.2448 75.6722 74.2494 75.637 72.2394C75.6165 71.2352 75.6679 70.2308 75.7909 69.234C75.8524 68.6698 76.5089 66.8747 76.2986 66.4541Z" fill="url(#paint12_linear_1_203)"/>
<path d="M67.0975 82.2509C67.3283 83.7896 66.0718 85.1077 65.5589 86.5643C64.7588 88.7645 65.6615 91.2725 67.1386 93.083C67.3834 93.4106 67.6879 93.689 68.0361 93.9036C68.5166 94.116 69.0532 94.1664 69.5648 94.047C70.0765 93.9277 70.5354 93.6451 70.8723 93.242C71.5257 92.4133 71.8992 91.3987 71.9391 90.3442C72.0417 89.3184 71.9956 88.2465 72.1648 87.2156C72.2848 86.1638 72.8067 85.199 73.6214 84.523C73.8573 84.3537 74.1343 84.1435 74.1035 83.8614C74.0764 83.7612 74.0274 83.6683 73.9599 83.5895C73.1342 82.4509 72.1699 81.579 70.6672 81.6252C70.2312 81.6355 67.1078 82.3227 67.0975 82.2509Z" fill="#FFAA20"/>
<path d="M62.2252 82.4817C61.2213 82.0207 60.2661 81.4606 59.3735 80.8097C58.4144 80.1584 57.4554 79.5019 56.5629 78.7582C55.836 78.1427 55.1506 77.4796 54.5114 76.7733C53.9087 77.381 53.4221 78.0937 53.0753 78.8762C52.9083 79.2707 52.8511 79.703 52.9098 80.1274C52.9685 80.5518 53.1409 80.9523 53.4087 81.2867C53.5523 81.4109 53.6783 81.5541 53.7831 81.7124C53.8982 82.0755 53.8744 82.4685 53.7164 82.8151C53.54 83.4505 53.4878 84.114 53.5626 84.7692C53.5726 84.9775 53.642 85.1786 53.7626 85.3487C53.9564 85.5284 54.1851 85.6663 54.4345 85.7539C55.1064 86.0975 55.5013 86.8207 56.1167 87.2618C56.8271 87.6908 57.6535 87.888 58.4811 87.826C59.302 87.7625 60.1272 87.7865 60.943 87.8978C61.2379 87.9899 61.5478 88.0247 61.8559 88.0003C62.2899 87.8619 62.6561 87.5653 62.8816 87.1695L64.1998 85.3744C64.3525 85.1281 64.564 84.9237 64.8152 84.7794C64.9427 84.7134 65.0898 84.6958 65.2293 84.7297C65.3688 84.7636 65.4913 84.8469 65.5743 84.9641C65.7851 84.562 65.9099 84.1204 65.9408 83.6674C65.9717 83.2144 65.908 82.76 65.7538 82.333C65.7386 82.2767 65.7063 82.2266 65.6615 82.1894C65.6 82.1683 65.5332 82.1683 65.4717 82.1894C64.4254 82.2458 63.2099 82.892 62.2252 82.4817Z" fill="#FFAA20"/>
<path d="M62.2252 82.4817C61.2213 82.0207 60.2661 81.4606 59.3735 80.8097C58.4144 80.1584 57.4554 79.5019 56.5629 78.7582C55.836 78.1427 55.1506 77.4796 54.5114 76.7733C53.9087 77.381 53.4221 78.0937 53.0753 78.8762C52.9083 79.2707 52.8511 79.703 52.9098 80.1274C52.9685 80.5518 53.1409 80.9523 53.4087 81.2867C53.5523 81.4109 53.6783 81.5541 53.7831 81.7124C53.8982 82.0755 53.8744 82.4685 53.7164 82.8151C53.54 83.4505 53.4878 84.114 53.5626 84.7692C53.5726 84.9775 53.642 85.1786 53.7626 85.3487C53.9564 85.5284 54.1851 85.6663 54.4345 85.7539C55.1064 86.0975 55.5013 86.8207 56.1167 87.2618C56.8271 87.6908 57.6535 87.888 58.4811 87.826C59.302 87.7625 60.1272 87.7865 60.943 87.8978C61.2379 87.9899 61.5478 88.0247 61.8559 88.0003C62.2899 87.8619 62.6561 87.5653 62.8816 87.1695L64.1998 85.3744C64.3525 85.1281 64.564 84.9237 64.8152 84.7794C64.9427 84.7134 65.0898 84.6958 65.2293 84.7297C65.3688 84.7636 65.4913 84.8469 65.5743 84.9641C65.7851 84.562 65.9099 84.1204 65.9408 83.6674C65.9717 83.2144 65.908 82.76 65.7538 82.333C65.7386 82.2767 65.7063 82.2266 65.6615 82.1894C65.6 82.1683 65.5332 82.1683 65.4717 82.1894C64.4254 82.2458 63.2099 82.892 62.2252 82.4817Z" fill="#FFAA20"/>
<path d="M62.1379 81.8098C61.1335 81.3499 60.1781 80.7897 59.2863 80.1378C58.3155 79.5017 57.3775 78.817 56.4757 78.0863C55.7463 77.4716 55.0608 76.8066 54.4242 76.0963C53.8203 76.7049 53.3335 77.4195 52.9881 78.2043C52.8222 78.5984 52.7661 79.0302 52.8257 79.4536C52.8853 79.8771 53.0584 80.2766 53.3266 80.6097C53.4688 80.7372 53.5945 80.882 53.701 81.0405C53.8161 81.4036 53.7923 81.7966 53.6343 82.1432C53.4553 82.7764 53.403 83.4387 53.4805 84.0921C53.4896 84.3014 53.5572 84.5039 53.6754 84.6768C53.8689 84.8556 54.0978 84.9919 54.3472 85.0769C55.0242 85.4205 55.414 86.1437 56.0295 86.5848C56.7392 87.0154 57.5661 87.2127 58.3939 87.1489C59.2164 87.0854 60.0434 87.1094 60.8608 87.2207C61.1536 87.3151 61.4622 87.3499 61.7686 87.3233C62.2036 87.1893 62.5706 86.8938 62.7944 86.4976L64.1125 84.7025C64.2604 84.4542 64.4708 84.249 64.7228 84.1075C64.8499 84.0393 64.9976 84.0204 65.1377 84.0545C65.2779 84.0886 65.4004 84.1732 65.4819 84.2922C65.6929 83.8892 65.8177 83.4467 65.8486 82.9929C65.8796 82.5391 65.8158 82.0838 65.6614 81.656C65.6555 81.626 65.6434 81.5977 65.626 81.5726C65.6085 81.5476 65.5861 81.5265 65.5601 81.5106C65.534 81.4947 65.505 81.4843 65.4748 81.4802C65.4445 81.4761 65.4138 81.4783 65.3845 81.4867C64.3331 81.5739 63.1175 82.2201 62.1379 81.8098Z" fill="url(#paint13_linear_1_203)"/>
<path d="M104.743 74.132C105.618 73.7903 106.566 73.6774 107.497 73.8037C108.308 73.8807 109.144 74.0653 109.918 73.8037C110.693 73.5422 111.364 72.778 111.898 72.0753C112.575 71.1675 113.236 70.2443 113.872 69.3109C113.59 68.5416 112.149 69.1981 111.713 68.5108C111.657 68.3768 111.587 68.2495 111.503 68.1313C111.241 67.8646 110.734 68.1005 110.441 67.8697C110.149 67.6389 110.221 67.2389 109.928 67.0952C109.636 66.9516 109.415 67.1517 109.133 67.1619C108.549 67.1876 108.267 66.4849 107.928 66.0028C107.415 65.2489 106.456 64.9155 105.584 64.6283C105.39 64.5459 105.179 64.5124 104.969 64.5308C104.809 64.5714 104.658 64.641 104.523 64.736C102.951 65.7175 101.46 66.8237 100.066 68.0441C100.034 67.959 99.9841 67.8818 99.9194 67.8181C99.8547 67.7544 99.7768 67.7057 99.6912 67.6753C99.6056 67.645 99.5144 67.6338 99.424 67.6426C99.3336 67.6514 99.2463 67.6799 99.1681 67.7261C99.0209 67.8505 98.8945 67.9977 98.7937 68.162C98.4946 68.5544 98.0589 68.8199 97.573 68.9057C97.2664 68.9265 96.9625 68.9763 96.6652 69.0545C95.9985 69.3058 95.7574 70.1571 95.8703 70.8598C96.0578 71.5544 96.2803 72.2392 96.537 72.9113C96.7883 73.8499 96.696 74.8449 96.8242 75.804C96.946 76.408 97.0248 77.0198 97.0601 77.635C97.0601 78.9326 96.2242 80.1378 96.3165 81.4252C97.7936 80.6097 99.9066 79.625 100.999 78.3479C102.266 76.8605 102.83 74.9577 104.743 74.132Z" fill="#FFAA20"/>
<path d="M82.7352 78.1735C82.7769 77.6501 82.9537 77.1465 83.2481 76.7118C83.6071 76.2707 84.1918 76.045 84.4996 75.5681C84.7717 74.998 84.8211 74.3468 84.638 73.7422C84.3559 72.204 83.9668 70.6873 83.4738 69.2032C83.241 68.7136 83.1919 68.1566 83.3353 67.6338C83.4651 67.4039 83.645 67.2061 83.8616 67.0552C84.0783 66.9042 84.3261 66.804 84.5867 66.7619C86.5049 66.2952 88.5206 67.2748 89.9412 68.6339C91.3619 69.993 92.3313 71.7574 93.4852 73.3627C93.8833 73.8616 94.2271 74.4015 94.511 74.9731C94.815 75.7443 94.9531 76.5709 94.9162 77.3991C94.8947 79.6209 94.3125 81.8014 93.2237 83.7383C92.5723 84.9076 91.5671 86.0719 90.2284 86.1437C89.6659 86.1199 89.1056 86.0583 88.5513 85.9591C87.4025 85.8616 86.2793 86.277 85.1304 86.4001C83.7033 86.5462 82.2666 86.2355 81.0273 85.5128C81.3159 85.0272 81.6435 84.5658 82.007 84.1332C82.2519 83.6467 82.355 83.101 82.3044 82.5586C82.3633 81.0898 82.5072 79.6257 82.7352 78.1735Z" fill="#FFAA20"/>
<path d="M55.0499 69.6699C54.0498 69.157 53.0548 68.6441 52.0393 68.1774C51.077 67.7121 50.0909 67.2978 49.0851 66.9362C47.3944 66.3828 45.6713 65.934 43.9255 65.5925C44.5381 65.776 45.1734 65.8727 45.8129 65.8797C46.877 66.0274 47.9202 66.2994 48.9209 66.69L48.4645 65.4899C48.8183 65.7874 49.1005 66.1608 49.2902 66.5823C49.3214 66.6779 49.3781 66.763 49.4543 66.8285C49.5302 66.8739 49.6173 66.897 49.7057 66.8952C50.2201 66.9562 50.719 67.1109 51.1776 67.3517C51.106 66.8333 51.0957 66.3082 51.1469 65.7874C51.445 66.2134 51.6447 66.7005 51.7315 67.2132C51.7383 67.2952 51.7647 67.3743 51.8085 67.444C51.8684 67.5147 51.9464 67.5679 52.0341 67.5979C52.7252 67.8973 53.3967 68.2399 54.0446 68.6236L54.2754 66.5721L54.7524 68.321C54.7726 68.4659 54.8306 68.6029 54.9206 68.7182C55.0107 68.8335 55.1296 68.9229 55.2653 68.9775L56.886 69.8391C56.9355 69.8707 56.9917 69.8901 57.0501 69.8956C57.1043 69.886 57.1564 69.8669 57.204 69.8391C57.4612 69.6803 57.6801 69.4667 57.8451 69.2134C58.0451 69.7673 57.8964 71.2034 56.9835 71.0085C56.7014 70.9521 56.4706 70.5828 56.2757 70.4136C55.8927 70.1258 55.4821 69.8767 55.0499 69.6699Z" fill="#FFAA20"/>
<path d="M63.3534 75.3578C62.4463 75.1126 61.4919 75.1002 60.5787 75.3219C59.7837 75.486 58.9683 75.7527 58.1733 75.5783C57.3783 75.4039 56.6346 74.7167 56.0243 74.0653C55.255 73.2344 54.5045 72.3796 53.7728 71.5009C53.9728 70.7111 55.4755 71.2137 55.8243 70.4751C55.8647 70.3372 55.9216 70.2046 55.9935 70.0802C56.2243 69.7879 56.7526 69.9674 57.0193 69.7058C57.286 69.4442 57.1783 69.0596 57.4347 68.8852C57.6912 68.7108 57.9476 68.8852 58.2348 68.8852C58.8195 68.8493 59.0298 68.121 59.317 67.6081C59.7684 66.8029 60.6659 66.3772 61.507 65.9977C61.6648 65.8944 61.8493 65.8394 62.0379 65.8394C62.2264 65.8394 62.4109 65.8944 62.5687 65.9977C64.2322 66.8125 65.8288 67.7575 67.3436 68.8236C67.3676 68.7364 67.4102 68.6553 67.4683 68.5859C67.5265 68.5165 67.5989 68.4604 67.6806 68.4215C67.7624 68.3826 67.8515 68.3617 67.9421 68.3603C68.0326 68.3589 68.1224 68.377 68.2053 68.4133C68.367 68.522 68.5092 68.6573 68.6258 68.8134C68.965 69.1715 69.4262 69.3893 69.9183 69.4237C70.2236 69.4098 70.5294 69.427 70.8312 69.475C71.5236 69.6596 71.857 70.5008 71.8108 71.188C71.7 71.8914 71.5511 72.5883 71.3646 73.2755C71.2108 74.2346 71.4057 75.2142 71.3646 76.1886C71.3033 76.8004 71.2878 77.4158 71.3185 78.0299C71.4723 79.3172 72.4058 80.4302 72.4519 81.7278C70.9133 81.0661 68.7028 80.3071 67.4718 79.1377C66.1024 77.8145 65.3434 75.9784 63.3534 75.3578Z" fill="#FFAA20"/>
<path d="M64.1126 75.009C63.2062 74.7594 62.2512 74.7453 61.3379 74.968C60.5429 75.1321 59.7274 75.3988 58.9325 75.2296C58.0757 74.9484 57.3257 74.4114 56.7835 73.6909C56.0142 72.86 55.2448 72.0138 54.5319 71.1265C54.7319 70.3367 56.2347 70.8342 56.5835 70.1007C56.6239 69.9628 56.6807 69.8302 56.7527 69.7058C56.9835 69.4135 57.5118 69.593 57.7785 69.3314C58.0452 69.0698 57.9323 68.68 58.1939 68.5108C58.4555 68.3415 58.7068 68.5108 58.994 68.5108C59.5787 68.4749 59.789 67.7466 60.0762 67.2337C60.5275 66.4285 61.4199 65.9977 62.2662 65.6233C62.4486 65.5221 62.6526 65.4658 62.8611 65.4591C63.0255 65.4817 63.1839 65.5357 63.3279 65.6181C64.9924 66.4311 66.5892 67.3761 68.1028 68.4441C68.126 68.3563 68.1681 68.2747 68.2261 68.2048C68.2841 68.1349 68.3566 68.0785 68.4386 68.0395C68.5206 68.0004 68.6101 67.9797 68.7009 67.9787C68.7917 67.9777 68.8816 67.9965 68.9644 68.0338C69.126 68.1407 69.2682 68.2742 69.385 68.4287C69.7237 68.7883 70.1848 69.0079 70.6775 69.0442C70.9827 69.0304 71.2886 69.0476 71.5904 69.0955C72.2776 69.275 72.6161 70.1212 72.57 70.8085C72.455 71.5115 72.3044 72.2082 72.1187 72.8959C71.9699 73.855 72.1648 74.8346 72.1187 75.804C72.0555 76.4173 72.0384 77.0345 72.0674 77.6504C72.2264 78.9377 73.1598 80.0506 73.2008 81.3431C71.6622 80.6815 69.4568 79.9224 68.2207 78.7787C66.8616 77.4708 66.1025 75.6296 64.1126 75.009Z" fill="url(#paint14_linear_1_203)"/>
<path d="M71.0929 85.359C70.8636 85.912 70.7653 86.5106 70.8057 87.1079L70.7698 90.6981C70.796 90.9073 70.7775 91.1197 70.7156 91.3212C70.6537 91.5228 70.5498 91.7089 70.4108 91.8674C70.1849 92.0089 69.9343 92.1063 69.6722 92.1547C69.2665 92.3623 68.8238 92.4878 68.3695 92.5239C67.7848 92.4726 67.3745 91.9392 67.0668 91.4418C66.5635 90.6205 66.1213 89.7634 65.7436 88.8773C65.4401 88.3182 65.3404 87.6709 65.4615 87.0463C65.6205 86.5335 66.0564 86.1283 66.2462 85.6154C66.4359 85.1025 66.3641 84.564 66.5078 84.0768C66.7344 83.6162 66.9065 83.1308 67.0206 82.6304C67.0206 82.574 67.0206 82.5073 67.0668 82.4766C67.1016 82.464 67.1397 82.464 67.1745 82.4766L69.0876 82.4458C68.7837 83.2554 68.6731 84.1247 68.7644 84.9846C68.0352 85.4186 67.4802 86.0933 67.195 86.8925C67.6276 86.5068 68.1087 86.1793 68.626 85.918C68.6386 86.5693 68.52 87.2164 68.2772 87.8208C67.9592 88.5901 67.4361 89.3235 67.472 90.1544C67.5946 89.543 67.8799 88.9761 68.2977 88.5132C68.3993 89.5479 68.6516 90.5621 69.0465 91.5238L68.6465 88.5337L70.1031 89.303C69.8685 88.8411 69.5976 88.3986 69.2927 87.9798C69.1418 87.7684 69.0368 87.5278 68.9847 87.2733C68.9326 87.0189 68.9344 86.7564 68.9901 86.5027L69.6671 87.0156C69.3927 86.568 69.217 86.067 69.1515 85.5461C69.0861 85.0252 69.1325 84.4963 69.2876 83.9947C69.3371 83.5016 69.5377 83.0359 69.862 82.6612C70.2263 82.3777 70.6724 82.2195 71.1339 82.2099C71.7751 82.1432 73.2265 82.2099 72.9393 83.2356C72.6675 84.0665 71.5084 84.5281 71.0929 85.359Z" fill="url(#paint15_linear_1_203)"/>
<path d="M84.2278 84.4717C84.2483 83.7777 84.1565 83.0849 83.956 82.4202C83.7512 81.7517 83.7512 81.0372 83.956 80.3686C84.2534 79.6455 84.9817 79.0198 84.8586 78.2453C84.8022 77.9273 84.5868 77.6247 84.6638 77.3119C84.73 77.1078 84.857 76.9288 85.0279 76.799L86.3101 75.604C86.5115 75.4442 86.6715 75.2384 86.7768 75.0039C86.8441 74.7058 86.8264 74.3948 86.7255 74.1064L85.1202 67.88L87.9052 69.3109C88.1871 69.447 88.458 69.6048 88.7155 69.7828C89.0451 70.0406 89.3444 70.3348 89.6079 70.6598C90.1354 71.3248 90.7338 71.9302 91.3928 72.4651C91.8937 72.7551 92.3513 73.1142 92.7519 73.5319C92.9987 73.8828 93.1843 74.273 93.3007 74.6859L93.9162 76.44C94.0436 76.7703 94.1314 77.1147 94.1777 77.4657C94.1914 77.9246 94.1273 78.3824 93.988 78.8197C93.4303 80.985 92.7453 83.1155 91.9364 85.2C91.8713 85.4185 91.7533 85.6176 91.5928 85.7796C91.0132 86.2924 90.0131 85.6308 89.3874 86.077L91.6338 83.7947L89.9105 84.7846C89.925 84.1959 89.973 83.6086 90.0541 83.0254C90.9596 82.5223 91.6696 81.7292 92.0698 80.7738C91.4714 81.3483 90.8525 81.9056 90.2131 82.4458C89.9875 81.7688 90.2952 81.0456 90.5516 80.3943C91.0595 79.1036 91.404 77.7545 91.5774 76.3784C91.0765 77.3346 90.6529 78.3294 90.3106 79.3531C90.008 78.3274 90.1311 77.1836 90.0798 76.0912C89.999 74.354 89.4841 72.6647 88.5822 71.1778C89.4387 73.2293 89.572 75.5117 89.6951 77.7376C89.6951 78.0043 89.7208 78.2504 89.731 78.5479L88.4642 77.0093C88.9126 77.6269 89.2265 78.3318 89.3855 79.0783C89.5445 79.8248 89.5452 80.5963 89.3874 81.3431C88.2385 80.225 87.0487 79.1429 85.7972 78.112C85.7995 78.4681 85.8829 78.8189 86.0411 79.138C86.1993 79.457 86.4281 79.7358 86.7102 79.9532C87.1188 80.2111 87.5437 80.4424 87.9821 80.6456C88.1998 80.7506 88.392 80.9018 88.5452 81.0887C88.6985 81.2756 88.8091 81.4937 88.8694 81.7278C88.6703 81.7743 88.4844 81.8655 88.3257 81.9945C88.8565 82.5734 89.1889 83.3064 89.2746 84.087C88.7617 84.087 88.5104 84.6922 88.3821 85.1846L88.1462 86.0924C88.1325 86.2047 88.082 86.3093 88.0026 86.3899C87.9179 86.4487 87.8184 86.4825 87.7154 86.4873C86.5503 86.6976 85.357 86.6976 84.1919 86.4873C83.9099 86.4527 83.6368 86.3657 83.3867 86.2309C83.0738 85.9898 83.2687 85.995 83.5303 85.7693C83.9215 85.4429 84.1714 84.978 84.2278 84.4717Z" fill="url(#paint16_linear_1_203)"/>
<path d="M99.8912 77.5734C100.419 77.1382 100.886 76.6346 101.281 76.0758C101.671 75.4911 101.897 74.8039 102.338 74.25C103.143 73.2242 104.523 72.86 105.82 72.7934C106.693 72.8145 107.566 72.7475 108.426 72.5933C110.082 72.1574 111.257 70.7213 112.303 69.3622C111.462 69.3263 110.882 68.5108 110.103 68.1826C109.79 68.0492 109.451 67.9979 109.133 67.8902C107.754 67.4184 106.836 65.9259 105.394 65.6899C105.125 65.6297 104.843 65.6623 104.594 65.7823C104.437 65.8884 104.287 66.0068 104.148 66.1362C103.671 66.5157 103.03 66.649 102.497 66.9414C101.738 67.3876 101.276 68.2082 100.599 68.7775C100.559 68.8158 100.509 68.8424 100.455 68.8544C100.414 68.8538 100.374 68.8443 100.336 68.8266C100.299 68.8089 100.266 68.7834 100.24 68.7519L99.5578 68.1569C99.4977 68.0928 99.4186 68.0496 99.3321 68.0338C99.2862 68.0366 99.2412 68.0484 99.1998 68.0687C99.1584 68.0889 99.1215 68.1172 99.0911 68.1518C98.6551 68.5518 98.4859 69.1775 98.091 69.6135C97.9397 69.8046 97.7513 69.9632 97.5371 70.0795C97.3229 70.1959 97.0873 70.2676 96.8447 70.2905L96.6498 70.5316C96.5894 71.8323 96.6841 73.1357 96.9319 74.4141C97.5903 74.1292 98.1411 73.6421 98.5044 73.0234C98.8677 72.4047 99.0247 71.6865 98.9526 70.9726L99.2244 72.6446C99.7886 72.5523 100.091 71.9266 100.189 71.3624C100.208 70.7917 100.355 70.2326 100.619 69.7263C100.594 70.305 100.646 70.8846 100.773 71.4496C101.315 70.893 101.944 70.4287 102.635 70.0751C102.823 69.9992 102.996 69.8916 103.148 69.7571C103.289 69.5911 103.397 69.3995 103.466 69.1929L104.348 66.9978C104.056 67.9117 103.902 68.8643 103.892 69.8238C104.611 69.6129 105.347 69.4653 106.092 69.3827C107.168 69.2834 108.248 69.2509 109.328 69.2852C107.984 69.993 106.22 69.2391 104.856 69.9161C104.51 70.1401 104.148 70.339 103.774 70.511C103.343 70.6495 102.82 70.6085 102.507 70.9316L105.82 72.3113C104.734 72.3429 103.653 72.1563 102.64 71.7625C102.482 71.681 102.305 71.6421 102.127 71.6496C101.987 71.6798 101.854 71.7392 101.738 71.824L100.199 72.7882C100.076 72.8591 99.962 72.9452 99.8604 73.0447C99.5732 73.3627 99.5476 73.8961 99.1732 74.0704C99.5949 74.2141 99.9862 74.435 100.327 74.7218L99.7425 74.5936C99.0603 74.45 98.2859 74.3166 97.6909 74.7115C97.481 74.877 97.3084 75.085 97.1847 75.3219C97.0609 75.5588 96.9887 75.8192 96.9729 76.0861C96.9482 76.6181 96.9619 77.1511 97.0139 77.6811C97.0338 78.2098 96.9994 78.7391 96.9113 79.2608C96.8344 79.6968 96.6344 80.1583 97.2498 79.9122C97.6858 79.7378 98.1423 79.1223 98.491 78.8095L99.8912 77.5734Z" fill="url(#paint17_linear_1_203)"/>
<path d="M73.3752 82.5638C74.6215 82.5638 75.6318 81.5534 75.6318 80.3071C75.6318 79.0607 74.6215 78.0504 73.3752 78.0504C72.1288 78.0504 71.1185 79.0607 71.1185 80.3071C71.1185 81.5534 72.1288 82.5638 73.3752 82.5638Z" fill="#FFAA20"/>
<path d="M73.3752 82.5638C74.6215 82.5638 75.6318 81.5534 75.6318 80.3071C75.6318 79.0607 74.6215 78.0504 73.3752 78.0504C72.1288 78.0504 71.1185 79.0607 71.1185 80.3071C71.1185 81.5534 72.1288 82.5638 73.3752 82.5638Z" fill="url(#paint18_linear_1_203)"/>
<path d="M79.5248 59.52C78.5292 60.2684 77.4684 60.9258 76.3552 61.4843C77.227 61.8889 78.1426 62.1918 79.0837 62.387C80.031 62.5801 81.0158 62.4482 81.8789 62.0126C82.6338 61.5117 83.2736 60.8561 83.756 60.0893L85.6229 57.5249L86.6487 56.1196C86.9821 55.6682 87.3257 55.0938 87.1052 54.5809C85.6127 54.9451 84.1561 54.9964 83.079 56.1196C81.9649 57.3246 80.7779 58.4602 79.5248 59.52Z" fill="#FFAA20"/>
<path d="M79.5248 59.52C78.5292 60.2684 77.4684 60.9258 76.3552 61.4843C77.227 61.8889 78.1426 62.1918 79.0837 62.387C80.031 62.5801 81.0158 62.4482 81.8789 62.0126C82.6338 61.5117 83.2736 60.8561 83.756 60.0893L85.6229 57.5249L86.6487 56.1196C86.9821 55.6682 87.3257 55.0938 87.1052 54.5809C85.6127 54.9451 84.1561 54.9964 83.079 56.1196C81.9649 57.3246 80.7779 58.4602 79.5248 59.52Z" fill="url(#paint19_linear_1_203)"/>
<path d="M70.0978 50.9343C70.4315 51.529 70.8693 52.0588 71.3903 52.4986C71.7801 52.9089 72.1186 53.3654 72.5443 53.7347C73.289 54.308 74.1319 54.7407 75.0318 55.0117C75.5959 55.2169 76.8884 55.4169 76.8525 54.4476C76.8525 53.9962 75.5293 53.1038 75.2164 52.8217C74.5399 52.1706 73.7358 51.6667 72.8548 51.3419C71.9739 51.017 71.0351 50.8782 70.0978 50.9343Z" fill="#FFAA20"/>
<path d="M80.3555 50.2881C80.0731 51.0059 80.0459 51.799 80.2785 52.5345C80.2823 52.5986 80.2998 52.661 80.3299 52.7177C80.36 52.7743 80.402 52.8238 80.4529 52.8628C80.529 52.8911 80.6127 52.8911 80.6888 52.8628C81.1247 52.7081 81.5097 52.4367 81.8018 52.0781C82.6481 51.3395 83.8533 51.1087 84.7047 50.3855C85.4022 49.7906 85.074 47.0467 83.8944 47.2518C82.8019 47.4416 80.8376 49.3444 80.3555 50.2881Z" fill="#FFAA20"/>
<path d="M95.6394 56.258C95.7445 55.5662 95.7445 54.8625 95.6394 54.1706C95.4701 53.3962 95.0444 52.7038 94.8239 51.9396C94.6439 51.3059 94.6088 50.6397 94.7213 49.9906C94.8752 49.1239 93.6955 48.9649 93.1262 49.3752C92.5569 49.7855 92.6544 50.801 92.7621 51.4985C93.0575 53.4018 94.0913 55.1119 95.6394 56.258Z" fill="#FFAA20"/>
<path d="M65.9641 40.569C64.6665 42.164 63.0817 43.5027 61.7584 45.0823C60.4352 46.662 59.3735 48.5751 59.3735 50.6317C61.066 50.7292 62.5739 49.5496 63.6407 48.2314C64.7075 46.9133 65.5281 45.3747 66.8103 44.272C67.4514 43.7181 68.1951 43.2873 68.7952 42.6923C70.1287 41.3742 71.6776 36.0248 69.426 34.9991C68.1695 36.7839 67.3745 38.8406 65.9641 40.569Z" fill="#FFAA20"/>
<path d="M65.9641 40.569C64.6665 42.164 63.0817 43.5027 61.7584 45.0823C60.4352 46.662 59.3735 48.5751 59.3735 50.6317C61.066 50.7292 62.5739 49.5496 63.6407 48.2314C64.7075 46.9133 65.5281 45.3747 66.8103 44.272C67.4514 43.7181 68.1951 43.2873 68.7952 42.6923C70.1287 41.3742 71.6776 36.0248 69.426 34.9991C68.1695 36.7839 67.3745 38.8406 65.9641 40.569Z" fill="url(#paint20_linear_1_203)"/>
<path d="M65.3074 39.9894C64.0047 41.5845 62.4199 42.9231 61.1018 44.5028C59.7837 46.0825 58.6964 47.9955 58.7015 50.0522C60.394 50.1496 61.8967 48.97 62.9635 47.6519C64.0303 46.3338 64.851 44.7951 66.1383 43.6873C66.7794 43.1385 67.5231 42.7077 68.1231 42.1127C69.4515 40.7946 71.0004 35.4453 68.754 34.4195C67.5128 36.2043 66.7127 38.261 65.3074 39.9894Z" fill="#FFAA20"/>
<path d="M77.8372 23.9516C77.432 24.6081 77.0474 25.3518 76.3447 25.6749L79.6169 24.485C79.9699 24.374 80.3 24.2003 80.5914 23.9721C80.8743 23.6605 81.1188 23.3162 81.3197 22.9463C81.8406 22.2077 82.5688 21.6401 83.4122 21.3154C83.9399 21.1769 84.4114 20.8776 84.7611 20.4589C85.0381 19.9973 84.6893 19.1972 84.1662 19.3459C81.5373 19.9985 79.2667 21.6508 77.8372 23.9516Z" fill="#FFAA20"/>
<path d="M63.733 26.6955C64.2301 27.8372 64.9892 28.8457 65.9486 29.6395C67.6839 31.19 69.6904 32.4071 71.8673 33.2296C71.6452 31.1823 70.9556 29.2135 69.8517 27.4751C69.1644 26.3929 68.2822 25.3005 68.313 24.0183C68.4033 23.5475 68.3787 23.0619 68.2412 22.6027C68.0881 22.3912 67.8928 22.2136 67.6678 22.0812C67.4427 21.9488 67.1926 21.8645 66.9334 21.8334C65.6768 21.5205 63.9638 20.6281 63.3073 22.0078C62.8149 23.0592 63.3483 25.7005 63.733 26.6955Z" fill="#FFAA20"/>
<path d="M63.733 26.6955C64.2301 27.8372 64.9892 28.8457 65.9486 29.6395C67.6839 31.19 69.6904 32.4071 71.8673 33.2296C71.6452 31.1823 70.9556 29.2135 69.8517 27.4751C69.1644 26.3929 68.2822 25.3005 68.313 24.0183C68.4033 23.5475 68.3787 23.0619 68.2412 22.6027C68.0881 22.3912 67.8928 22.2136 67.6678 22.0812C67.4427 21.9488 67.1926 21.8645 66.9334 21.8334C65.6768 21.5205 63.9638 20.6281 63.3073 22.0078C62.8149 23.0592 63.3483 25.7005 63.733 26.6955Z" fill="url(#paint21_linear_1_203)"/>
<path d="M64.0612 26.0954C64.5603 27.2374 65.3211 28.2458 66.282 29.0394C68.0147 30.5934 70.0218 31.811 72.2007 32.6296C71.9785 30.5839 71.2889 28.6167 70.185 26.8801C69.4978 25.7928 68.6156 24.7004 68.6464 23.4182C68.7366 22.9491 68.712 22.4652 68.5746 22.0078C68.422 21.7945 68.2263 21.6158 68 21.4832C67.7738 21.3507 67.5222 21.2673 67.2616 21.2384C66.005 20.9256 64.2971 20.0332 63.6407 21.4077C63.1483 22.4437 63.6766 25.0902 64.0612 26.0954Z" fill="#FFAA20"/>
<path d="M92.1006 51.6677C92.9366 51.6113 93.4597 50.7856 93.9624 50.1291C95.1881 48.5186 96.9884 47.457 98.804 46.5697C101.881 45.031 101.338 41.1126 98.0193 43.3026C95.2292 45.1593 93.1212 48.5546 92.1006 51.6677Z" fill="#FFAA20"/>
<path d="M85.9049 33.9426C85.9049 31.6538 84.0495 29.7985 81.7608 29.7985C79.4721 29.7985 77.6167 31.6538 77.6167 33.9426C77.6167 36.2313 79.4721 38.0866 81.7608 38.0866C84.0495 38.0866 85.9049 36.2313 85.9049 33.9426Z" fill="#FFAA20"/>
<path d="M85.9049 33.9426C85.9049 31.6538 84.0495 29.7985 81.7608 29.7985C79.4721 29.7985 77.6167 31.6538 77.6167 33.9426C77.6167 36.2313 79.4721 38.0866 81.7608 38.0866C84.0495 38.0866 85.9049 36.2313 85.9049 33.9426Z" fill="url(#paint22_linear_1_203)"/>
<path d="M79.4528 30.5729C79.6221 30.7063 79.8734 30.6293 80.0734 30.5421C80.4683 30.3678 80.8581 30.1882 81.2428 29.9882C81.3318 30.3902 81.5067 30.7681 81.7557 31.096C81.8549 30.9467 81.9233 30.779 81.9568 30.6029C81.9903 30.4267 81.9882 30.2456 81.9506 30.0703C82.4875 30.4183 83.0559 30.7154 83.6482 30.9576C83.6737 30.8114 83.6633 30.6612 83.6177 30.52C83.5721 30.3788 83.4928 30.2509 83.3866 30.1472C83.1699 29.9416 82.9108 29.7858 82.6276 29.6907C82.959 29.6693 83.2823 29.5785 83.5764 29.424C83.2431 29.2532 82.8638 29.1939 82.4942 29.2548C82.4613 29.2733 82.4245 29.2839 82.3868 29.2859C82.3491 29.2879 82.3115 29.2813 82.2768 29.2664C82.2421 29.2515 82.2112 29.2288 82.1867 29.2002C82.1621 29.1715 82.1445 29.1375 82.1352 29.1009C82.0813 28.9571 82.0451 28.8073 82.0275 28.6547C82.0266 28.4347 81.983 28.217 81.8993 28.0136C81.7916 27.8239 81.5044 27.711 81.3505 27.87C81.1966 28.029 81.2889 28.2495 81.3505 28.4444C81.4116 28.6527 81.4427 28.8685 81.4428 29.0855C81.4505 29.1467 81.436 29.2086 81.4018 29.2599C81.3043 29.383 81.0222 29.4548 80.8889 29.5369C80.7555 29.6189 80.5606 29.7061 80.376 29.7985C80.1939 29.8953 80.022 30.0105 79.8631 30.1421C79.8016 30.2088 79.5144 30.5729 79.4528 30.5729Z" fill="#FFAA20"/>
<path d="M71.5083 42.4307C71.3272 42.6428 71.177 42.8793 71.0621 43.1334C70.9353 43.4636 70.9353 43.829 71.0621 44.1591C71.1031 44.2822 71.1851 44.4105 71.3134 44.4207C71.3738 44.4199 71.4333 44.4059 71.4877 44.3797C72.0724 44.1138 72.5856 43.713 72.9854 43.2103C73.177 42.9981 73.319 42.7458 73.4008 42.4718C73.4547 42.2238 73.4287 41.9651 73.3264 41.7329C73.2241 41.5007 73.0508 41.3069 72.8315 41.1793C72.5186 41.0254 72.4007 41.3383 72.2109 41.5691L71.5083 42.4307Z" fill="#FFAA20"/>
<path d="M71.5083 42.4307C71.3272 42.6428 71.177 42.8793 71.0621 43.1334C70.9353 43.4636 70.9353 43.829 71.0621 44.1591C71.1031 44.2822 71.1851 44.4105 71.3134 44.4207C71.3738 44.4199 71.4333 44.4059 71.4877 44.3797C72.0724 44.1138 72.5856 43.713 72.9854 43.2103C73.177 42.9981 73.319 42.7458 73.4008 42.4718C73.4547 42.2238 73.4287 41.9651 73.3264 41.7329C73.2241 41.5007 73.0508 41.3069 72.8315 41.1793C72.5186 41.0254 72.4007 41.3383 72.2109 41.5691L71.5083 42.4307Z" fill="url(#paint23_linear_1_203)"/>
<path d="M72.8469 46.144C72.9634 46.2773 73.1001 46.3916 73.252 46.4825C73.4494 46.5901 73.6795 46.6212 73.8983 46.5697C73.9752 46.5697 74.0624 46.5082 74.0829 46.4312C74.0905 46.3923 74.0905 46.3522 74.0829 46.3133C73.9576 45.9282 73.7452 45.5772 73.4623 45.2875C73.3421 45.1482 73.1935 45.0363 73.0264 44.9593C72.8733 44.9051 72.707 44.9007 72.5514 44.9468C72.3957 44.9928 72.2585 45.087 72.1596 45.2157C72.0365 45.4055 72.2212 45.5029 72.3545 45.6414C72.4879 45.7799 72.6776 45.9696 72.8469 46.144Z" fill="#FFAA20"/>
<path d="M72.8469 46.144C72.9634 46.2773 73.1001 46.3916 73.252 46.4825C73.4494 46.5901 73.6795 46.6212 73.8983 46.5697C73.9752 46.5697 74.0624 46.5082 74.0829 46.4312C74.0905 46.3923 74.0905 46.3522 74.0829 46.3133C73.9576 45.9282 73.7452 45.5772 73.4623 45.2875C73.3421 45.1482 73.1935 45.0363 73.0264 44.9593C72.8733 44.9051 72.707 44.9007 72.5514 44.9468C72.3957 44.9928 72.2585 45.087 72.1596 45.2157C72.0365 45.4055 72.2212 45.5029 72.3545 45.6414C72.4879 45.7799 72.6776 45.9696 72.8469 46.144Z" fill="url(#paint24_linear_1_203)"/>
<path d="M75.1702 43.2257C75.1739 43.4407 75.212 43.6536 75.283 43.8565C75.3794 44.1034 75.5615 44.3074 75.7959 44.431C75.8382 44.4573 75.8871 44.4713 75.9369 44.4713C75.9868 44.4713 76.0357 44.4573 76.078 44.431C76.111 44.399 76.1372 44.3606 76.1549 44.3181C76.3456 43.8611 76.4264 43.3657 76.3908 42.8718C76.3889 42.652 76.34 42.4351 76.2472 42.2358C76.1477 42.0673 75.9972 41.9347 75.8175 41.8573C75.6377 41.7798 75.438 41.7615 75.2471 41.805C74.9907 41.8819 75.083 42.1179 75.0984 42.3435L75.1702 43.2257Z" fill="#FFAA20"/>
<path d="M75.1702 43.2257C75.1739 43.4407 75.212 43.6536 75.283 43.8565C75.3794 44.1034 75.5615 44.3074 75.7959 44.431C75.8382 44.4573 75.8871 44.4713 75.9369 44.4713C75.9868 44.4713 76.0357 44.4573 76.078 44.431C76.111 44.399 76.1372 44.3606 76.1549 44.3181C76.3456 43.8611 76.4264 43.3657 76.3908 42.8718C76.3889 42.652 76.34 42.4351 76.2472 42.2358C76.1477 42.0673 75.9972 41.9347 75.8175 41.8573C75.6377 41.7798 75.438 41.7615 75.2471 41.805C74.9907 41.8819 75.083 42.1179 75.0984 42.3435L75.1702 43.2257Z" fill="url(#paint25_linear_1_203)"/>
<path d="M68.2361 49.1341C68.2423 49.3488 68.2804 49.5614 68.3489 49.7649C68.4445 50.0123 68.6268 50.2165 68.8618 50.3394C68.9033 50.3653 68.9513 50.379 69.0003 50.379C69.0492 50.379 69.0972 50.3653 69.1387 50.3394C69.1745 50.3098 69.2012 50.2707 69.2157 50.2265C69.4106 49.7725 69.4933 49.2781 69.4567 48.7853C69.454 48.5634 69.4032 48.3447 69.308 48.1442C69.2065 47.9713 69.0517 47.8358 68.8668 47.7581C68.6819 47.6805 68.4768 47.6648 68.2822 47.7134C68.0258 47.7904 68.1232 48.0263 68.1386 48.2519C68.154 48.4776 68.2156 48.8469 68.2361 49.1341Z" fill="#FFAA20"/>
<path d="M68.2361 49.1341C68.2423 49.3488 68.2804 49.5614 68.3489 49.7649C68.4445 50.0123 68.6268 50.2165 68.8618 50.3394C68.9033 50.3653 68.9513 50.379 69.0003 50.379C69.0492 50.379 69.0972 50.3653 69.1387 50.3394C69.1745 50.3098 69.2012 50.2707 69.2157 50.2265C69.4106 49.7725 69.4933 49.2781 69.4567 48.7853C69.454 48.5634 69.4032 48.3447 69.308 48.1442C69.2065 47.9713 69.0517 47.8358 68.8668 47.7581C68.6819 47.6805 68.4768 47.6648 68.2822 47.7134C68.0258 47.7904 68.1232 48.0263 68.1386 48.2519C68.154 48.4776 68.2156 48.8469 68.2361 49.1341Z" fill="url(#paint26_linear_1_203)"/>
<path d="M75.1703 51.2061C75.1724 51.4171 75.207 51.6264 75.2729 51.8267C75.3692 52.0736 75.5513 52.2775 75.7857 52.4012C75.8286 52.4259 75.8773 52.439 75.9268 52.439C75.9763 52.439 76.025 52.4259 76.0678 52.4012C76.1009 52.3692 76.1271 52.3308 76.1448 52.2883C76.3355 51.8313 76.4163 51.3359 76.3807 50.842C76.3801 50.622 76.3311 50.4049 76.2371 50.206C76.1387 50.0453 75.9939 49.9181 75.8218 49.8412C75.6497 49.7643 75.4583 49.7413 75.2729 49.7752C75.0164 49.8521 75.1087 50.0932 75.1241 50.3189L75.1703 51.2061Z" fill="#FFAA20"/>
<path d="M75.1703 51.2061C75.1724 51.4171 75.207 51.6264 75.2729 51.8267C75.3692 52.0736 75.5513 52.2775 75.7857 52.4012C75.8286 52.4259 75.8773 52.439 75.9268 52.439C75.9763 52.439 76.025 52.4259 76.0678 52.4012C76.1009 52.3692 76.1271 52.3308 76.1448 52.2883C76.3355 51.8313 76.4163 51.3359 76.3807 50.842C76.3801 50.622 76.3311 50.4049 76.2371 50.206C76.1387 50.0453 75.9939 49.9181 75.8218 49.8412C75.6497 49.7643 75.4583 49.7413 75.2729 49.7752C75.0164 49.8521 75.1087 50.0932 75.1241 50.3189L75.1703 51.2061Z" fill="url(#paint27_linear_1_203)"/>
<path d="M100.281 48.3084C100.132 48.479 100.009 48.6709 99.9169 48.8777C99.8146 49.1434 99.8146 49.4377 99.9169 49.7034C99.9528 49.8008 100.019 49.9034 100.122 49.9137C100.172 49.9147 100.222 49.9023 100.266 49.8778C100.742 49.6644 101.159 49.3388 101.481 48.9289C101.638 48.7563 101.755 48.5515 101.825 48.3289C101.867 48.1261 101.845 47.915 101.762 47.7255C101.678 47.5359 101.537 47.3774 101.358 47.2723C101.102 47.1492 101.004 47.4006 100.845 47.5903C100.686 47.7801 100.471 48.0673 100.281 48.3084Z" fill="#FFAA20"/>
<path d="M100.281 48.3084C100.132 48.479 100.009 48.6709 99.9169 48.8777C99.8146 49.1434 99.8146 49.4377 99.9169 49.7034C99.9528 49.8008 100.019 49.9034 100.122 49.9137C100.172 49.9147 100.222 49.9023 100.266 49.8778C100.742 49.6644 101.159 49.3388 101.481 48.9289C101.638 48.7563 101.755 48.5515 101.825 48.3289C101.867 48.1261 101.845 47.915 101.762 47.7255C101.678 47.5359 101.537 47.3774 101.358 47.2723C101.102 47.1492 101.004 47.4006 100.845 47.5903C100.686 47.7801 100.471 48.0673 100.281 48.3084Z" fill="url(#paint28_linear_1_203)"/>
<path d="M91.049 61.0843C91.1453 61.1946 91.2577 61.2897 91.3824 61.3663C91.5405 61.4471 91.7218 61.4706 91.8953 61.433C91.9568 61.433 92.0286 61.3869 92.044 61.3202C92.0516 61.2899 92.0516 61.2582 92.044 61.2279C91.9454 60.9063 91.7693 60.6139 91.5311 60.3765C91.4361 60.2606 91.3148 60.1692 91.1772 60.1098C91.0522 60.0652 90.9163 60.0616 90.789 60.0994C90.6618 60.1372 90.5499 60.2145 90.4695 60.3201C90.372 60.4688 90.5208 60.5509 90.6285 60.6637L91.049 61.0843Z" fill="#FFAA20"/>
<path d="M91.049 61.0843C91.1453 61.1946 91.2577 61.2897 91.3824 61.3663C91.5405 61.4471 91.7218 61.4706 91.8953 61.433C91.9568 61.433 92.0286 61.3869 92.044 61.3202C92.0516 61.2899 92.0516 61.2582 92.044 61.2279C91.9454 60.9063 91.7693 60.6139 91.5311 60.3765C91.4361 60.2606 91.3148 60.1692 91.1772 60.1098C91.0522 60.0652 90.9163 60.0616 90.789 60.0994C90.6618 60.1372 90.5499 60.2145 90.4695 60.3201C90.372 60.4688 90.5208 60.5509 90.6285 60.6637L91.049 61.0843Z" fill="url(#paint29_linear_1_203)"/>
<path d="M109.503 54.9297C109.507 55.1043 109.538 55.2772 109.595 55.4426C109.676 55.6443 109.827 55.8101 110.021 55.9093C110.055 55.9306 110.095 55.9419 110.136 55.9419C110.177 55.9419 110.217 55.9306 110.251 55.9093C110.28 55.8851 110.302 55.8531 110.313 55.817C110.469 55.4462 110.536 55.0438 110.508 54.6425C110.504 54.4652 110.464 54.2905 110.39 54.1296C110.308 53.9924 110.186 53.8843 110.039 53.8208C109.893 53.7573 109.73 53.7415 109.574 53.7757C109.364 53.8372 109.441 54.0321 109.456 54.2168C109.472 54.4014 109.487 54.6938 109.503 54.9297Z" fill="#FFAA20"/>
<path d="M109.503 54.9297C109.507 55.1043 109.538 55.2772 109.595 55.4426C109.676 55.6443 109.827 55.8101 110.021 55.9093C110.055 55.9306 110.095 55.9419 110.136 55.9419C110.177 55.9419 110.217 55.9306 110.251 55.9093C110.28 55.8851 110.302 55.8531 110.313 55.817C110.469 55.4462 110.536 55.0438 110.508 54.6425C110.504 54.4652 110.464 54.2905 110.39 54.1296C110.308 53.9924 110.186 53.8843 110.039 53.8208C109.893 53.7573 109.73 53.7415 109.574 53.7757C109.364 53.8372 109.441 54.0321 109.456 54.2168C109.472 54.4014 109.487 54.6938 109.503 54.9297Z" fill="url(#paint30_linear_1_203)"/>
<path d="M103.856 59.7405C103.863 59.9149 103.894 60.0875 103.948 60.2534C104.027 60.4576 104.179 60.6255 104.374 60.7252C104.408 60.7465 104.448 60.7578 104.489 60.7578C104.53 60.7578 104.57 60.7465 104.605 60.7252C104.634 60.7011 104.655 60.669 104.666 60.6329C104.822 60.2621 104.889 59.8598 104.861 59.4584C104.858 59.281 104.818 59.1062 104.743 58.9455C104.663 58.8072 104.54 58.6982 104.393 58.6345C104.247 58.5708 104.083 58.5558 103.928 58.5916C103.717 58.6532 103.794 58.8481 103.81 59.0327L103.856 59.7405Z" fill="#FFAA20"/>
<path d="M103.856 59.7405C103.863 59.9149 103.894 60.0875 103.948 60.2534C104.027 60.4576 104.179 60.6255 104.374 60.7252C104.408 60.7465 104.448 60.7578 104.489 60.7578C104.53 60.7578 104.57 60.7465 104.605 60.7252C104.634 60.7011 104.655 60.669 104.666 60.6329C104.822 60.2621 104.889 59.8598 104.861 59.4584C104.858 59.281 104.818 59.1062 104.743 58.9455C104.663 58.8072 104.54 58.6982 104.393 58.6345C104.247 58.5708 104.083 58.5558 103.928 58.5916C103.717 58.6532 103.794 58.8481 103.81 59.0327L103.856 59.7405Z" fill="url(#paint31_linear_1_203)"/>
<path d="M109.503 61.4279C109.507 61.6025 109.538 61.7754 109.595 61.9408C109.676 62.144 109.827 62.3114 110.021 62.4126C110.056 62.4329 110.095 62.4436 110.136 62.4436C110.176 62.4436 110.216 62.4329 110.251 62.4126C110.278 62.3865 110.299 62.3551 110.313 62.3203C110.47 61.948 110.537 61.5438 110.508 61.1407C110.504 60.9635 110.464 60.7889 110.39 60.6278C110.308 60.491 110.185 60.3835 110.039 60.3208C109.892 60.2582 109.73 60.2435 109.574 60.279C109.364 60.3406 109.441 60.5304 109.456 60.7201C109.472 60.9099 109.487 61.192 109.503 61.4279Z" fill="#FFAA20"/>
<path d="M109.503 61.4279C109.507 61.6025 109.538 61.7754 109.595 61.9408C109.676 62.144 109.827 62.3114 110.021 62.4126C110.056 62.4329 110.095 62.4436 110.136 62.4436C110.176 62.4436 110.216 62.4329 110.251 62.4126C110.278 62.3865 110.299 62.3551 110.313 62.3203C110.47 61.948 110.537 61.5438 110.508 61.1407C110.504 60.9635 110.464 60.7889 110.39 60.6278C110.308 60.491 110.185 60.3835 110.039 60.3208C109.892 60.2582 109.73 60.2435 109.574 60.279C109.364 60.3406 109.441 60.5304 109.456 60.7201C109.472 60.9099 109.487 61.192 109.503 61.4279Z" fill="url(#paint32_linear_1_203)"/>
<path d="M58.9888 33.9271C59.1372 34.6846 59.4732 35.3927 59.966 35.9868C60.4588 36.5808 61.0926 37.0418 61.8096 37.3276C61.8936 37.1821 61.9304 37.0142 61.9147 36.8469C61.8991 36.6797 61.8319 36.5215 61.7224 36.3941C61.4969 36.1449 61.2401 35.9259 60.9583 35.7427C60.2914 35.1933 59.8198 34.4431 59.6138 33.604C59.4077 32.7649 59.4781 31.8816 59.8145 31.0858C60.1633 30.3113 60.0248 29.3061 59.2657 30.2908C58.6452 31.0909 58.7939 33.0193 58.9888 33.9271Z" fill="#FFAA20"/>
<path d="M58.9888 33.9271C59.1372 34.6846 59.4732 35.3927 59.966 35.9868C60.4588 36.5808 61.0926 37.0418 61.8096 37.3276C61.8936 37.1821 61.9304 37.0142 61.9147 36.8469C61.8991 36.6797 61.8319 36.5215 61.7224 36.3941C61.4969 36.1449 61.2401 35.9259 60.9583 35.7427C60.2914 35.1933 59.8198 34.4431 59.6138 33.604C59.4077 32.7649 59.4781 31.8816 59.8145 31.0858C60.1633 30.3113 60.0248 29.3061 59.2657 30.2908C58.6452 31.0909 58.7939 33.0193 58.9888 33.9271Z" fill="url(#paint33_linear_1_203)"/>
<path d="M109.954 41.8102C109.494 41.5579 108.978 41.4256 108.454 41.4256C107.929 41.4256 107.413 41.5579 106.954 41.8102C106.991 41.916 107.061 42.0075 107.153 42.0718C107.244 42.1362 107.354 42.1702 107.466 42.1692C107.694 42.1633 107.92 42.1271 108.138 42.0615C108.715 41.9547 109.311 42.0368 109.838 42.2954C110.364 42.5541 110.794 42.9757 111.062 43.4975C111.308 44.0104 111.893 44.3848 111.713 43.554C111.575 42.8718 110.508 42.1076 109.954 41.8102Z" fill="#FFAA20"/>
<path d="M109.954 41.8102C109.494 41.5579 108.978 41.4256 108.454 41.4256C107.929 41.4256 107.413 41.5579 106.954 41.8102C106.991 41.916 107.061 42.0075 107.153 42.0718C107.244 42.1362 107.354 42.1702 107.466 42.1692C107.694 42.1633 107.92 42.1271 108.138 42.0615C108.715 41.9547 109.311 42.0368 109.838 42.2954C110.364 42.5541 110.794 42.9757 111.062 43.4975C111.308 44.0104 111.893 44.3848 111.713 43.554C111.575 42.8718 110.508 42.1076 109.954 41.8102Z" fill="url(#paint34_linear_1_203)"/>
<path d="M96.2548 35.9274C96.0679 35.6748 95.8208 35.473 95.5359 35.3404C95.251 35.2078 94.9375 35.1487 94.6239 35.1683C94.6173 35.2366 94.6326 35.3053 94.6677 35.3643C94.7027 35.4233 94.7556 35.4696 94.8188 35.4966C94.9449 35.5503 95.0778 35.5866 95.2137 35.6043C95.559 35.6906 95.8664 35.8879 96.0888 36.1659C96.3111 36.4438 96.4361 36.7871 96.4446 37.1429C96.4446 37.4865 96.6805 37.8302 96.7882 37.3327C96.7771 36.8169 96.5887 36.3207 96.2548 35.9274Z" fill="#FFAA20"/>
<path d="M96.2548 35.9274C96.0679 35.6748 95.8208 35.473 95.5359 35.3404C95.251 35.2078 94.9375 35.1487 94.6239 35.1683C94.6173 35.2366 94.6326 35.3053 94.6677 35.3643C94.7027 35.4233 94.7556 35.4696 94.8188 35.4966C94.9449 35.5503 95.0778 35.5866 95.2137 35.6043C95.559 35.6906 95.8664 35.8879 96.0888 36.1659C96.3111 36.4438 96.4361 36.7871 96.4446 37.1429C96.4446 37.4865 96.6805 37.8302 96.7882 37.3327C96.7771 36.8169 96.5887 36.3207 96.2548 35.9274Z" fill="url(#paint35_linear_1_203)"/>
<path d="M86.3512 43.0359C86.6075 42.8554 86.8141 42.6132 86.9522 42.3318C87.0902 42.0503 87.1552 41.7387 87.141 41.4255C87.0738 41.4173 87.0057 41.4308 86.9466 41.464C86.8876 41.4972 86.8407 41.5484 86.8128 41.6101C86.7559 41.7359 86.7162 41.8687 86.6948 42.0051C86.6018 42.3437 86.4017 42.6431 86.1243 42.8585C85.8469 43.074 85.5073 43.1938 85.1562 43.2001C84.8125 43.2001 84.4638 43.4206 84.9561 43.5386C85.4646 43.5338 85.9565 43.3566 86.3512 43.0359Z" fill="#FFAA20"/>
<path d="M86.3512 43.0359C86.6075 42.8554 86.8141 42.6132 86.9522 42.3318C87.0902 42.0503 87.1552 41.7387 87.141 41.4255C87.0738 41.4173 87.0057 41.4308 86.9466 41.464C86.8876 41.4972 86.8407 41.5484 86.8128 41.6101C86.7559 41.7359 86.7162 41.8687 86.6948 42.0051C86.6018 42.3437 86.4017 42.6431 86.1243 42.8585C85.8469 43.074 85.5073 43.1938 85.1562 43.2001C84.8125 43.2001 84.4638 43.4206 84.9561 43.5386C85.4646 43.5338 85.9565 43.3566 86.3512 43.0359Z" fill="url(#paint36_linear_1_203)"/>
<path d="M90.5875 29.6138C90.3134 29.074 89.9074 28.6123 89.407 28.2715C88.9066 27.9308 88.3282 27.7221 87.7256 27.6649C87.6927 27.7922 87.7008 27.9266 87.7487 28.049C87.7966 28.1715 87.8818 28.2757 87.9923 28.347C88.2158 28.4881 88.4573 28.5986 88.7103 28.6752C89.3323 28.9445 89.8505 29.4076 90.1879 29.9954C90.5252 30.5832 90.6636 31.2643 90.5823 31.9372C90.4849 32.5937 90.808 33.3168 91.167 32.4141C91.4594 31.6756 90.9311 30.2549 90.5875 29.6138Z" fill="#FFAA20"/>
<path d="M90.5875 29.6138C90.3134 29.074 89.9074 28.6123 89.407 28.2715C88.9066 27.9308 88.3282 27.7221 87.7256 27.6649C87.6927 27.7922 87.7008 27.9266 87.7487 28.049C87.7966 28.1715 87.8818 28.2757 87.9923 28.347C88.2158 28.4881 88.4573 28.5986 88.7103 28.6752C89.3323 28.9445 89.8505 29.4076 90.1879 29.9954C90.5252 30.5832 90.6636 31.2643 90.5823 31.9372C90.4849 32.5937 90.808 33.3168 91.167 32.4141C91.4594 31.6756 90.9311 30.2549 90.5875 29.6138Z" fill="url(#paint37_linear_1_203)"/>
<path d="M49.3518 55.3195C48.8751 55.6927 48.5005 56.1804 48.2629 56.7373C48.0253 57.2941 47.9323 57.902 47.9927 58.5045C48.1242 58.5103 48.2542 58.4749 48.3646 58.4032C48.475 58.3314 48.5601 58.227 48.6082 58.1044C48.7038 57.8592 48.7659 57.6021 48.7928 57.3402C48.9375 56.6787 49.2916 56.0815 49.8025 55.6371C50.3134 55.1927 50.9539 54.9249 51.629 54.8733C52.2958 54.8425 52.942 54.386 51.9829 54.2065C51.2033 54.0629 49.916 54.8579 49.3518 55.3195Z" fill="#FFAA20"/>
<path d="M49.3518 55.3195C48.8751 55.6927 48.5005 56.1804 48.2629 56.7373C48.0253 57.2941 47.9323 57.902 47.9927 58.5045C48.1242 58.5103 48.2542 58.4749 48.3646 58.4032C48.475 58.3314 48.5601 58.227 48.6082 58.1044C48.7038 57.8592 48.7659 57.6021 48.7928 57.3402C48.9375 56.6787 49.2916 56.0815 49.8025 55.6371C50.3134 55.1927 50.9539 54.9249 51.629 54.8733C52.2958 54.8425 52.942 54.386 51.9829 54.2065C51.2033 54.0629 49.916 54.8579 49.3518 55.3195Z" fill="url(#paint38_linear_1_203)"/>
<path d="M67.3385 52.991C67.9899 53.786 68.0771 55.1195 67.277 55.7606C66.9231 56.0426 66.4563 56.1606 66.1332 56.4735C65.8854 56.7898 65.6754 57.1341 65.5075 57.4992C65.1417 58.0281 64.5955 58.4053 63.9713 58.5602C63.3472 58.715 62.688 58.6369 62.1174 58.3404C61.5626 58.0145 61.1221 57.5253 60.8558 56.9396C60.5896 56.354 60.5107 55.7004 60.63 55.0682C60.6615 54.7928 60.7603 54.5294 60.9177 54.3013C61.0752 54.0732 61.2864 53.8874 61.5327 53.7603C61.7653 53.6984 61.9947 53.6248 62.2199 53.5398C63.1636 53.0269 62.8662 51.637 64.1227 51.4882C65.1485 51.3446 66.723 52.2319 67.3385 52.991Z" fill="#FFAA20"/>
<path d="M64.1484 52.0473C64.2834 51.9939 64.4293 51.9735 64.5738 51.9878C64.7183 52.002 64.8573 52.0506 64.9793 52.1293C65.5001 52.3472 65.9857 52.6411 66.4205 53.0012C66.8567 53.3651 67.1404 53.8794 67.2154 54.4424C67.2427 54.5935 67.2116 54.7494 67.1282 54.8784C67.0395 54.9717 66.9282 55.0406 66.8051 55.0784C66.5877 55.171 66.3579 55.2315 66.123 55.2579C66.0058 55.2695 65.8874 55.2579 65.7748 55.2235C65.6621 55.1892 65.5573 55.1329 65.4665 55.0579C65.4176 55.0155 65.3779 54.9637 65.3497 54.9055C65.3215 54.8473 65.3054 54.784 65.3024 54.7194C65.3046 54.6547 65.3286 54.5927 65.3705 54.5433C65.4124 54.494 65.4697 54.4602 65.5332 54.4476C65.6819 54.4476 65.8153 54.5707 65.9691 54.5707C66.0576 54.5628 66.1395 54.5211 66.1978 54.4541C66.2561 54.3872 66.2863 54.3003 66.282 54.2116C66.2672 54.0316 66.189 53.8626 66.0614 53.7347C65.7532 53.374 65.3383 53.1208 64.8767 53.0115C64.8556 53.0025 64.8329 52.9978 64.81 52.9978C64.7871 52.9978 64.7644 53.0025 64.7433 53.0115C64.6305 53.0628 64.6921 53.232 64.7433 53.3346C64.887 53.5603 64.9741 53.909 64.7433 54.0578C64.5125 54.2065 64.2971 54.0578 64.1228 53.9039C63.7227 53.5449 63.5842 52.4012 64.1484 52.0473Z" fill="url(#paint39_linear_1_203)"/>
<path d="M62.2252 54.2732C62.0361 54.3041 61.8588 54.3856 61.7123 54.5091C61.589 54.6244 61.4912 54.7641 61.4251 54.9194C61.249 55.2461 61.1672 55.6153 61.189 55.9857C61.2107 56.3562 61.3351 56.7133 61.5482 57.0171C61.89 57.3908 62.3312 57.6594 62.8201 57.7916C63.1727 57.9312 63.5446 58.016 63.9228 58.0429C64.0921 58.0594 64.2628 58.036 64.4214 57.9745C64.5799 57.913 64.7218 57.8153 64.8357 57.689C64.9867 57.4762 65.0508 57.214 65.0153 56.9556C65.0182 56.7469 64.9574 56.5423 64.841 56.3691C64.7246 56.1959 64.5582 56.0624 64.3639 55.9862C64.2761 55.9592 64.1813 55.9664 64.0985 56.0063C64.0157 56.0463 63.9512 56.116 63.9177 56.2016C63.9177 56.3299 63.969 56.4581 63.9536 56.5914C63.9536 56.8222 63.6048 56.9197 63.3945 56.812C63.1993 56.6797 63.0504 56.4896 62.9688 56.2683C62.8889 56.1325 62.8349 55.9829 62.8099 55.8272C62.7995 55.7514 62.8081 55.6743 62.835 55.6027C62.8619 55.531 62.9061 55.4672 62.9637 55.4169C63.1098 55.3433 63.2721 55.308 63.4356 55.3143C63.9485 55.2631 63.8254 54.8476 63.5484 54.6168C63.365 54.4687 63.1521 54.3614 62.9239 54.3021C62.6957 54.2429 62.4575 54.233 62.2252 54.2732Z" fill="url(#paint40_linear_1_203)"/>
<path d="M64.4306 52.7346C64.4332 52.7833 64.4473 52.8307 64.4716 52.873C64.4716 52.873 64.4716 52.873 64.5024 52.8987C64.5143 52.9046 64.5275 52.9076 64.5408 52.9076C64.5542 52.9076 64.5673 52.9046 64.5793 52.8987C64.6019 52.8944 64.6234 52.8856 64.6426 52.873C64.6618 52.8603 64.6784 52.844 64.6912 52.8249C64.7041 52.8059 64.7131 52.7844 64.7176 52.7619C64.7222 52.7393 64.7222 52.7161 64.7178 52.6935C64.7203 52.6474 64.7203 52.6012 64.7178 52.555C64.7178 52.4576 64.6203 52.3037 64.4972 52.3755C64.3741 52.4473 64.4203 52.6422 64.4306 52.7346Z" fill="#FFAA20"/>
<path d="M65.0716 52.991C65.1024 53.0218 65.1537 52.991 65.1896 52.991L65.2973 52.9346C65.3473 52.9145 65.3877 52.8759 65.4101 52.8269C65.4227 52.7938 65.4227 52.7573 65.4101 52.7243C65.3229 52.4114 65.1024 52.8781 65.0716 52.991Z" fill="#FFAA20"/>
<path d="M65.9383 53.2577C65.9165 53.2818 65.8992 53.3096 65.887 53.3397C65.8828 53.3555 65.8841 53.3721 65.8906 53.3871C65.8971 53.402 65.9085 53.4142 65.9229 53.4218H65.9793C66.0559 53.4067 66.1314 53.3862 66.205 53.3603C66.2301 53.3547 66.2532 53.3423 66.2717 53.3244C66.3178 53.2628 66.2409 53.1038 66.1691 53.0884C66.0973 53.073 65.9845 53.2013 65.9383 53.2577Z" fill="#FFAA20"/>
<path d="M62.0866 54.9399C62.0633 54.9321 62.0381 54.9321 62.0148 54.9399C62.0148 54.9399 62.0148 54.9399 61.9841 54.9707C61.9598 55.0004 61.9441 55.0362 61.9386 55.0741C61.9332 55.1121 61.9383 55.1508 61.9533 55.1861C61.9714 55.2059 61.9921 55.2232 62.0148 55.2374C62.1174 55.3041 62.5585 55.4836 62.5944 55.2682C62.6303 55.0528 62.22 54.9758 62.0866 54.9399Z" fill="#FFAA20"/>
<path d="M66.5538 53.8783C66.5147 53.873 66.475 53.873 66.4359 53.8783C66.4157 53.882 66.3969 53.8911 66.3816 53.9046C66.3662 53.9182 66.3548 53.9357 66.3487 53.9552C66.346 53.9739 66.3478 53.993 66.3541 54.0109C66.3603 54.0287 66.3708 54.0448 66.3846 54.0578C66.4113 54.0825 66.4427 54.1016 66.4769 54.1142C66.5053 54.1295 66.537 54.1374 66.5692 54.1374C66.6014 54.1374 66.6331 54.1295 66.6615 54.1142C66.6884 54.0913 66.7059 54.0592 66.7106 54.0242C66.7153 53.9892 66.707 53.9537 66.6872 53.9244C66.6486 53.8671 66.5955 53.8211 66.5333 53.7911" fill="#FFAA20"/>
</g>
<defs>
<linearGradient id="paint0_linear_1_203" x1="60.7018" y1="55.858" x2="67.8924" y2="55.858" gradientUnits="userSpaceOnUse">
<stop offset="0.01"/>
<stop offset="0.13" stop-opacity="0.69"/>
<stop offset="1" stop-opacity="0"/>
</linearGradient>
<linearGradient id="paint1_linear_1_203" x1="67.0615" y1="103.284" x2="121.36" y2="103.284" gradientUnits="userSpaceOnUse">
<stop offset="0.01"/>
<stop offset="0.13" stop-opacity="0.69"/>
<stop offset="1" stop-opacity="0"/>
</linearGradient>
<linearGradient id="paint2_linear_1_203" x1="91.1722" y1="89.5749" x2="116.975" y2="105.172" gradientUnits="userSpaceOnUse">
<stop offset="0.01" stop-color="white"/>
<stop offset="0.13" stop-color="white" stop-opacity="0.69"/>
<stop offset="1" stop-color="white" stop-opacity="0"/>
</linearGradient>
<linearGradient id="paint3_linear_1_203" x1="100.286" y1="85.918" x2="111.257" y2="85.918" gradientUnits="userSpaceOnUse">
<stop offset="0.01"/>
<stop offset="0.13" stop-opacity="0.69"/>
<stop offset="1" stop-opacity="0"/>
</linearGradient>
<linearGradient id="paint4_linear_1_203" x1="57.5784" y1="86.7181" x2="67.318" y2="86.7181" gradientUnits="userSpaceOnUse">
<stop offset="0.01"/>
<stop offset="0.13" stop-opacity="0.69"/>
<stop offset="1" stop-opacity="0"/>
</linearGradient>
<linearGradient id="paint5_linear_1_203" x1="69.4259" y1="88.7081" x2="76.4883" y2="88.7081" gradientUnits="userSpaceOnUse">
<stop offset="0.01"/>
<stop offset="0.13" stop-opacity="0.69"/>
<stop offset="1" stop-opacity="0"/>
</linearGradient>
<linearGradient id="paint6_linear_1_203" x1="49.1467" y1="76.5015" x2="115.288" y2="76.5015" gradientUnits="userSpaceOnUse">
<stop offset="0.01"/>
<stop offset="0.13" stop-opacity="0.69"/>
<stop offset="1" stop-opacity="0"/>
</linearGradient>
<linearGradient id="paint7_linear_1_203" x1="80.5966" y1="102.023" x2="79.1554" y2="51.7703" gradientUnits="userSpaceOnUse">
<stop offset="0.01"/>
<stop offset="0.13" stop-opacity="0.69"/>
<stop offset="1" stop-opacity="0"/>
</linearGradient>
<linearGradient id="paint8_linear_1_203" x1="63.5483" y1="68.8032" x2="65.8101" y2="65.1463" gradientUnits="userSpaceOnUse">
<stop offset="0.01"/>
<stop offset="0.13" stop-opacity="0.69"/>
<stop offset="1" stop-opacity="0"/>
</linearGradient>
<linearGradient id="paint9_linear_1_203" x1="99.0295" y1="77.5375" x2="113.944" y2="77.5375" gradientUnits="userSpaceOnUse">
<stop offset="0.01"/>
<stop offset="0.13" stop-opacity="0.69"/>
<stop offset="1" stop-opacity="0"/>
</linearGradient>
<linearGradient id="paint10_linear_1_203" x1="101.594" y1="80.8354" x2="114.231" y2="80.8354" gradientUnits="userSpaceOnUse">
<stop offset="0.01"/>
<stop offset="0.13" stop-opacity="0.69"/>
<stop offset="1" stop-opacity="0"/>
</linearGradient>
<linearGradient id="paint11_linear_1_203" x1="80.4581" y1="97.2117" x2="79.4477" y2="62.0588" gradientUnits="userSpaceOnUse">
<stop offset="0.01"/>
<stop offset="0.13" stop-opacity="0.69"/>
<stop offset="1" stop-opacity="0"/>
</linearGradient>
<linearGradient id="paint12_linear_1_203" x1="89.5156" y1="79.3121" x2="78.0373" y2="75.8501" gradientUnits="userSpaceOnUse">
<stop offset="0.01"/>
<stop offset="0.13" stop-opacity="0.69"/>
<stop offset="1" stop-opacity="0"/>
</linearGradient>
<linearGradient id="paint13_linear_1_203" x1="52.7983" y1="81.7278" x2="65.8204" y2="81.7278" gradientUnits="userSpaceOnUse">
<stop offset="0.01"/>
<stop offset="0.13" stop-opacity="0.69"/>
<stop offset="1" stop-opacity="0"/>
</linearGradient>
<linearGradient id="paint14_linear_1_203" x1="75.4062" y1="82.892" x2="64.3587" y2="71.4804" gradientUnits="userSpaceOnUse">
<stop offset="0.01"/>
<stop offset="0.13" stop-opacity="0.69"/>
<stop offset="1" stop-opacity="0"/>
</linearGradient>
<linearGradient id="paint15_linear_1_203" x1="71.2211" y1="99.1093" x2="69.1286" y2="84.9538" gradientUnits="userSpaceOnUse">
<stop offset="0.01"/>
<stop offset="0.13" stop-opacity="0.69"/>
<stop offset="1" stop-opacity="0"/>
</linearGradient>
<linearGradient id="paint16_linear_1_203" x1="85.2484" y1="99.494" x2="91.1209" y2="64.259" gradientUnits="userSpaceOnUse">
<stop offset="0.01"/>
<stop offset="0.13" stop-opacity="0.69"/>
<stop offset="1" stop-opacity="0"/>
</linearGradient>
<linearGradient id="paint17_linear_1_203" x1="87.4435" y1="86.0924" x2="109.774" y2="65.1052" gradientUnits="userSpaceOnUse">
<stop offset="0.01"/>
<stop offset="0.13" stop-opacity="0.69"/>
<stop offset="1" stop-opacity="0"/>
</linearGradient>
<linearGradient id="paint18_linear_1_203" x1="73.0469" y1="84.3076" x2="73.5752" y2="77.8555" gradientUnits="userSpaceOnUse">
<stop offset="0.01"/>
<stop offset="0.13" stop-opacity="0.69"/>
<stop offset="1" stop-opacity="0"/>
</linearGradient>
<linearGradient id="paint19_linear_1_203" x1="80.0171" y1="64.1616" x2="83.6278" y2="52.0319" gradientUnits="userSpaceOnUse">
<stop offset="0.01"/>
<stop offset="0.13" stop-opacity="0.69"/>
<stop offset="1" stop-opacity="0"/>
</linearGradient>
<linearGradient id="paint20_linear_1_203" x1="59.3581" y1="42.8103" x2="70.5544" y2="42.8103" gradientUnits="userSpaceOnUse">
<stop offset="0.01"/>
<stop offset="0.13" stop-opacity="0.69"/>
<stop offset="1" stop-opacity="0"/>
</linearGradient>
<linearGradient id="paint21_linear_1_203" x1="63.1073" y1="27.2802" x2="71.8673" y2="27.2802" gradientUnits="userSpaceOnUse">
<stop offset="0.01"/>
<stop offset="0.13" stop-opacity="0.69"/>
<stop offset="1" stop-opacity="0"/>
</linearGradient>
<linearGradient id="paint22_linear_1_203" x1="77.6167" y1="33.9426" x2="85.9049" y2="33.9426" gradientUnits="userSpaceOnUse">
<stop offset="0.01"/>
<stop offset="0.13" stop-opacity="0.69"/>
<stop offset="1" stop-opacity="0"/>
</linearGradient>
<linearGradient id="paint23_linear_1_203" x1="70.9697" y1="42.7641" x2="73.4316" y2="42.7641" gradientUnits="userSpaceOnUse">
<stop offset="0.01"/>
<stop offset="0.13" stop-opacity="0.69"/>
<stop offset="1" stop-opacity="0"/>
</linearGradient>
<linearGradient id="paint24_linear_1_203" x1="72.9687" y1="46.4766" x2="73.171" y2="44.91" gradientUnits="userSpaceOnUse">
<stop offset="0.01"/>
<stop offset="0.13" stop-opacity="0.69"/>
<stop offset="1" stop-opacity="0"/>
</linearGradient>
<linearGradient id="paint25_linear_1_203" x1="75.0675" y1="43.7581" x2="76.4642" y2="42.4733" gradientUnits="userSpaceOnUse">
<stop offset="0.01"/>
<stop offset="0.13" stop-opacity="0.69"/>
<stop offset="1" stop-opacity="0"/>
</linearGradient>
<linearGradient id="paint26_linear_1_203" x1="68.1349" y1="49.6684" x2="69.5315" y2="48.3837" gradientUnits="userSpaceOnUse">
<stop offset="0.01"/>
<stop offset="0.13" stop-opacity="0.69"/>
<stop offset="1" stop-opacity="0"/>
</linearGradient>
<linearGradient id="paint27_linear_1_203" x1="75.0648" y1="51.7399" x2="76.4614" y2="50.4551" gradientUnits="userSpaceOnUse">
<stop offset="0.01"/>
<stop offset="0.13" stop-opacity="0.69"/>
<stop offset="1" stop-opacity="0"/>
</linearGradient>
<linearGradient id="paint28_linear_1_203" x1="99.84" y1="48.5751" x2="101.845" y2="48.5751" gradientUnits="userSpaceOnUse">
<stop offset="0.01"/>
<stop offset="0.13" stop-opacity="0.69"/>
<stop offset="1" stop-opacity="0"/>
</linearGradient>
<linearGradient id="paint29_linear_1_203" x1="91.1386" y1="61.3488" x2="91.3029" y2="60.0771" gradientUnits="userSpaceOnUse">
<stop offset="0.01"/>
<stop offset="0.13" stop-opacity="0.69"/>
<stop offset="1" stop-opacity="0"/>
</linearGradient>
<linearGradient id="paint30_linear_1_203" x1="109.425" y1="55.3736" x2="110.561" y2="54.3285" gradientUnits="userSpaceOnUse">
<stop offset="0.01"/>
<stop offset="0.13" stop-opacity="0.69"/>
<stop offset="1" stop-opacity="0"/>
</linearGradient>
<linearGradient id="paint31_linear_1_203" x1="103.779" y1="60.1906" x2="104.916" y2="59.1455" gradientUnits="userSpaceOnUse">
<stop offset="0.01"/>
<stop offset="0.13" stop-opacity="0.69"/>
<stop offset="1" stop-opacity="0"/>
</linearGradient>
<linearGradient id="paint32_linear_1_203" x1="109.426" y1="61.8746" x2="110.562" y2="60.8295" gradientUnits="userSpaceOnUse">
<stop offset="0.01"/>
<stop offset="0.13" stop-opacity="0.69"/>
<stop offset="1" stop-opacity="0"/>
</linearGradient>
<linearGradient id="paint33_linear_1_203" x1="58.8195" y1="33.604" x2="61.9225" y2="33.604" gradientUnits="userSpaceOnUse">
<stop offset="0.01"/>
<stop offset="0.13" stop-opacity="0.69"/>
<stop offset="1" stop-opacity="0"/>
</linearGradient>
<linearGradient id="paint34_linear_1_203" x1="110.41" y1="41.7154" x2="109.055" y2="43.3299" gradientUnits="userSpaceOnUse">
<stop offset="0.01"/>
<stop offset="0.13" stop-opacity="0.69"/>
<stop offset="1" stop-opacity="0"/>
</linearGradient>
<linearGradient id="paint35_linear_1_203" x1="96.2714" y1="36.0372" x2="95.1322" y2="36.5796" gradientUnits="userSpaceOnUse">
<stop offset="0.01"/>
<stop offset="0.13" stop-opacity="0.69"/>
<stop offset="1" stop-opacity="0"/>
</linearGradient>
<linearGradient id="paint36_linear_1_203" x1="86.425" y1="43.2286" x2="85.909" y2="42.0773" gradientUnits="userSpaceOnUse">
<stop offset="0.01"/>
<stop offset="0.13" stop-opacity="0.69"/>
<stop offset="1" stop-opacity="0"/>
</linearGradient>
<linearGradient id="paint37_linear_1_203" x1="90.6232" y1="29.8705" x2="88.287" y2="30.5431" gradientUnits="userSpaceOnUse">
<stop offset="0.01"/>
<stop offset="0.13" stop-opacity="0.69"/>
<stop offset="1" stop-opacity="0"/>
</linearGradient>
<linearGradient id="paint38_linear_1_203" x1="49.5098" y1="55.0957" x2="50.621" y2="57.2579" gradientUnits="userSpaceOnUse">
<stop offset="0.01"/>
<stop offset="0.13" stop-opacity="0.69"/>
<stop offset="1" stop-opacity="0"/>
</linearGradient>
<linearGradient id="paint39_linear_1_203" x1="62.4456" y1="57.5043" x2="67.0308" y2="51.6524" gradientUnits="userSpaceOnUse">
<stop offset="0.01"/>
<stop offset="0.13" stop-opacity="0.69"/>
<stop offset="1" stop-opacity="0"/>
</linearGradient>
<linearGradient id="paint40_linear_1_203" x1="61.1994" y1="56.1452" x2="65.0153" y2="56.1452" gradientUnits="userSpaceOnUse">
<stop offset="0.01"/>
<stop offset="0.13" stop-opacity="0.69"/>
<stop offset="1" stop-opacity="0"/>
</linearGradient>
<clipPath id="clip0_1_203">
<rect width="169.83" height="128" fill="white"/>
</clipPath>
</defs>
</svg>
